<svg width="188" height="48" viewBox="0 0 188 48" fill="none" xmlns="http://www.w3.org/2000/svg">
<g clip-path="url(#clip0_3206_1348)">
<path d="M0 4.24805H11.9172V8.60667H8.27586V27.6412H3.64138V8.60667H0V4.24805Z" fill="#6BAB44"/>
<path d="M14.0137 4.24854H23.3378V8.60716H18.6482V13.683H22.7861V18.0416H18.6482V23.283H23.393V27.6416H14.0137V4.24854Z" fill="#6BAB44"/>
<path d="M37.8479 4.41355V8.66182C37.241 8.49631 36.6341 8.38596 36.1375 8.38596C34.2065 8.38596 32.772 9.15838 31.7237 10.7032C30.7858 12.0273 30.3444 13.7377 30.3444 15.7239C30.3444 17.7101 30.7858 19.4204 31.7237 20.9101C32.8272 22.6204 34.2617 23.5032 36.1375 23.5032C36.5789 23.5032 37.1858 23.3929 37.903 23.1722V27.5308C37.241 27.8067 36.5237 27.917 35.7513 27.917C32.5513 27.917 30.0134 26.648 28.0272 24.1101C26.2617 21.7929 25.3789 19.0342 25.3789 15.7239C25.3789 12.6342 26.2617 9.93079 28.0824 7.66872C30.0686 5.18596 32.5513 3.97217 35.5306 3.97217C36.303 3.97217 37.0755 4.08251 37.8479 4.41355Z" fill="#6BAB44"/>
<path d="M40.2207 4.24854H44.8552V13.4072H49.5448V4.24854H54.1793V27.6416H49.5448V17.7658H44.8552V27.6416H40.2207V4.24854Z" fill="#6BAB44"/>
<path d="M58.5922 4.24854H64.6611L66.9232 18.0416H66.9784L68.8542 4.24854H75.0335L77.5163 27.6416H72.7715L71.668 10.8141H71.5577L70.8404 16.552L68.8542 27.6416H65.268L63.006 16.4416L62.2335 11.2003V10.8141H62.1784L61.5163 27.6416H56.5508L58.5922 4.24854Z" fill="#0868A0"/>
<path d="M83.9186 4.24854H88.7738L94.4014 27.6416H89.491L88.6083 23.7244H83.9186L83.091 27.6416H78.5117L83.9186 4.24854ZM87.891 20.0278L86.7324 13.7934L86.1807 10.2623H86.1255L85.629 13.7934L84.6359 20.0278H87.891Z" fill="#0868A0"/>
<path d="M103.724 14.6209H111.282V16.4416C111.282 19.5864 110.841 22.1795 109.903 24.0554C108.634 26.7037 106.593 27.9727 103.779 27.9727C100.91 27.9727 98.7581 26.6485 97.2133 23.9451C95.9995 21.7933 95.3926 19.1451 95.3926 16.0554C95.3926 12.7451 95.9443 10.0416 97.1029 7.94506C98.5374 5.24161 100.744 3.8623 103.724 3.8623C105.434 3.8623 106.924 4.35886 108.137 5.40713C109.296 6.40024 110.124 7.72437 110.62 9.43472L106.096 11.2002C105.765 9.21403 104.937 8.22093 103.724 8.16575C102.344 8.11058 101.406 9.10368 100.855 11.2002C100.468 12.5244 100.303 14.1244 100.303 16.0002C100.303 21.1864 101.517 23.7795 103.889 23.7795C104.937 23.7795 105.655 23.1726 106.151 21.9589C106.482 21.1313 106.593 20.1382 106.593 18.9795H103.724V14.6209Z" fill="#0868A0"/>
<path d="M113.711 4.24805H118.125L123.918 18.3722L123.973 18.317C123.697 17.3239 123.587 16.1653 123.587 14.786V4.24805H128.221V27.6412H123.863L118.125 13.517L118.07 13.5722L118.345 15.9446V16.8825V27.6412H113.711V4.24805Z" fill="#0868A0"/>
<path d="M135.559 4.24805H140.414L146.042 27.6412H141.132L140.249 23.7239H135.559L134.732 27.6412H130.152L135.559 4.24805ZM139.587 20.0274L138.373 13.7929L137.821 10.2618H137.766L137.27 13.7929L136.276 20.0274H139.587Z" fill="#0868A0"/>
<path d="M146.758 4.24805H158.675V8.60667H154.978V27.6412H150.344V8.60667H146.758V4.24805Z" fill="#0868A0"/>
<path d="M160.771 4.24854H170.096V8.60716H165.406V13.683H169.489V18.0416H165.406V23.283H170.151V27.6416H160.771V4.24854Z" fill="#0868A0"/>
<path d="M1.6543 45.2978V36.415H4.68878C5.35085 36.415 5.90257 36.4702 6.28878 36.5254C6.78533 36.6357 7.22671 36.8564 7.55774 37.1875C8.0543 37.5737 8.38533 38.0702 8.60602 38.6771C8.82671 39.284 8.93706 40.0012 8.93706 40.7737C8.93706 41.4357 8.88188 42.0426 8.71637 42.5943C8.55085 43.0909 8.38533 43.5323 8.10947 43.8633C7.83361 44.1943 7.61292 44.4702 7.28188 44.6909C7.00602 44.9116 6.61981 45.0219 6.23361 45.1323C5.8474 45.2426 5.35085 45.2978 4.79912 45.2978H1.6543ZM2.81292 44.3047H4.68878C5.29568 44.3047 5.73706 44.2495 6.06809 44.1392C6.39912 44.0288 6.67499 43.8633 6.8405 43.6978C7.11637 43.4219 7.33706 43.0357 7.50257 42.5943C7.66809 42.0978 7.72326 41.5461 7.72326 40.884C7.72326 39.9461 7.55774 39.2288 7.28188 38.7323C7.00602 38.2357 6.61981 37.9047 6.17843 37.7392C5.8474 37.6288 5.35085 37.5737 4.68878 37.5737H2.81292V44.3047Z" fill="#161616"/>
<path d="M14.7305 37.684V36.415H15.8339V37.684H14.7305ZM14.7305 45.2978V38.8978H15.8339V45.353L14.7305 45.2978Z" fill="#161616"/>
<path d="M21.5723 45.8487L22.6205 46.0142C22.6757 46.3452 22.786 46.5659 23.0067 46.7314C23.2826 46.9521 23.6688 47.0073 24.1102 47.0073C24.6067 47.0073 24.9929 46.897 25.2688 46.7314C25.5447 46.5108 25.7102 46.2349 25.8205 45.9039C25.8757 45.6832 25.8757 45.2418 25.8757 44.5245C25.3791 45.0763 24.8274 45.3521 24.1102 45.3521C23.2274 45.3521 22.5654 45.0211 22.0688 44.4142C21.5723 43.7521 21.3516 43.0349 21.3516 42.097C21.3516 41.4901 21.4619 40.9383 21.6826 40.3866C21.9033 39.8901 22.2343 39.4487 22.6205 39.1728C23.0619 38.897 23.5585 38.7314 24.1102 38.7314C24.8826 38.7314 25.4895 39.0625 25.986 39.6694V38.897H26.9791V44.4694C26.9791 45.4625 26.8688 46.1797 26.7033 46.6211C26.4826 47.0625 26.1516 47.3935 25.7102 47.6142C25.2688 47.8349 24.7171 48.0004 24.1102 48.0004C23.3378 48.0004 22.7309 47.8349 22.2343 47.5039C21.7929 47.0625 21.5171 46.5659 21.5723 45.8487ZM22.455 41.9866C22.455 42.8142 22.6205 43.4211 22.9516 43.8073C23.2826 44.1935 23.724 44.4142 24.2205 44.4142C24.7171 44.4142 25.1585 44.2487 25.4895 43.8625C25.8205 43.4763 25.986 42.8694 25.986 42.0418C25.986 41.2694 25.8205 40.6625 25.4895 40.2763C25.1585 39.8901 24.7171 39.6694 24.2205 39.6694C23.724 39.6694 23.3378 39.8901 23.0067 40.2763C22.6205 40.6073 22.455 41.2142 22.455 41.9866Z" fill="#161616"/>
<path d="M32.9375 37.683V36.4141H34.0409V37.683H32.9375ZM32.9375 45.2968V38.8968H34.0409V45.352L32.9375 45.2968Z" fill="#161616"/>
<path d="M42.3172 44.3594L42.4827 45.2973C42.1517 45.3525 41.931 45.4077 41.6551 45.4077C41.2689 45.4077 40.9379 45.3525 40.7172 45.2421C40.4965 45.1318 40.331 44.9663 40.2758 44.7456C40.1655 44.5249 40.1655 44.0835 40.1655 43.4766V39.7249H39.3379V38.8973H40.1655V37.2973L41.2689 36.6353V38.8973H42.3724V39.7249H41.2689V43.4766C41.2689 43.8077 41.2689 43.9732 41.3241 44.0835C41.3793 44.1939 41.4344 44.249 41.4896 44.3042C41.6 44.3594 41.7103 44.3594 41.8758 44.3594C41.931 44.4146 42.0965 44.3594 42.3172 44.3594Z" fill="#161616"/>
<path d="M51.862 44.525C51.4758 44.8561 51.0896 45.1319 50.7034 45.2423C50.3172 45.4078 49.931 45.463 49.4896 45.463C48.7724 45.463 48.2206 45.2974 47.8896 44.9664C47.5034 44.6354 47.3379 44.194 47.3379 43.6423C47.3379 43.3112 47.3931 43.0354 47.5586 42.7595C47.7241 42.4837 47.8896 42.3181 48.1103 42.1526C48.331 41.9871 48.6069 41.8768 48.8827 41.7664C49.1034 41.7112 49.4344 41.6561 49.8758 41.6009C50.7586 41.4906 51.4206 41.3802 51.8069 41.2147C51.8069 41.0492 51.8069 40.994 51.8069 40.9388C51.8069 40.4974 51.6965 40.1664 51.4758 40.0009C51.2 39.7802 50.7586 39.6147 50.262 39.6147C49.7655 39.6147 49.3793 39.725 49.1034 39.8906C48.8827 40.0561 48.662 40.3871 48.5517 40.8285L47.5034 40.663C47.6138 40.2216 47.7793 39.8354 48 39.5595C48.2206 39.2837 48.5517 39.063 48.9379 38.8974C49.3793 38.7319 49.8206 38.6768 50.3724 38.6768C50.9241 38.6768 51.3655 38.7319 51.6965 38.8974C52.0275 39.0078 52.3034 39.1733 52.4689 39.394C52.6344 39.6147 52.7448 39.8354 52.8 40.1664C52.8551 40.3319 52.8551 40.663 52.8551 41.1595V42.594C52.8551 43.5871 52.8551 44.2492 52.9103 44.525C52.9655 44.8009 53.0206 45.0768 53.1862 45.2974H52.0275C51.9724 45.0768 51.9172 44.8009 51.862 44.525ZM51.7517 42.0975C51.3655 42.263 50.7586 42.3733 49.9862 42.4837C49.5448 42.5388 49.2138 42.594 49.0482 42.7043C48.8827 42.8147 48.7172 42.925 48.6069 43.0354C48.4965 43.2009 48.4413 43.3664 48.4413 43.5319C48.4413 43.8078 48.5517 44.0837 48.7724 44.2492C48.9931 44.4699 49.3241 44.525 49.7103 44.525C50.1517 44.525 50.4827 44.4147 50.8138 44.2492C51.1448 44.0837 51.3655 43.8078 51.531 43.4768C51.6413 43.2561 51.6965 42.8699 51.6965 42.3733L51.7517 42.0975Z" fill="#161616"/>
<path d="M58.8125 45.2968V36.4141H59.9159V45.2968H58.8125Z" fill="#161616"/>
<path d="M73.7656 45.2968V36.4141H80.1105V37.4623H74.9242V40.221H79.7794V41.2692H74.9242V44.3037H80.3311V45.2968H73.7656Z" fill="#161616"/>
<path d="M85.3516 45.2975L87.6688 41.9871L85.5171 38.8975H86.8412L87.8343 40.4423C87.9998 40.7182 88.1654 40.9388 88.2757 41.1595C88.4412 40.8837 88.6067 40.663 88.7723 40.4423L89.8205 38.8975H91.1447L88.9378 41.9871L91.255 45.2975H89.9309L88.6067 43.3113L88.3309 42.8147L86.6205 45.2975H85.3516Z" fill="#161616"/>
<path d="M100.744 42.9797L101.793 43.1452C101.682 43.8625 101.406 44.4694 100.91 44.8556C100.413 45.297 99.8616 45.4625 99.1444 45.4625C98.2616 45.4625 97.5444 45.1866 97.0478 44.5797C96.4961 44.028 96.2754 43.2004 96.2754 42.097C96.2754 41.3797 96.3857 40.7728 96.6064 40.2763C96.8271 39.7797 97.1581 39.3935 97.6547 39.1177C98.0961 38.8418 98.6478 38.7314 99.1995 38.7314C99.9168 38.7314 100.468 38.897 100.91 39.2832C101.351 39.6142 101.627 40.1659 101.737 40.7728L100.689 40.9383C100.579 40.497 100.413 40.1659 100.137 39.9452C99.8616 39.7246 99.5857 39.6142 99.1995 39.6142C98.6478 39.6142 98.2064 39.8349 97.8754 40.2211C97.5444 40.6073 97.3788 41.2142 97.3788 42.097C97.3788 42.9797 97.5444 43.5866 97.8754 43.9728C98.2064 44.359 98.6478 44.5797 99.1444 44.5797C99.5857 44.5797 99.9168 44.4694 100.193 44.1935C100.524 43.9177 100.689 43.5314 100.744 42.9797Z" fill="#161616"/>
<path d="M111.393 43.2561L112.497 43.4216C112.331 44.0837 112 44.5802 111.504 44.9664C111.007 45.3526 110.4 45.5181 109.683 45.5181C108.745 45.5181 108.028 45.2423 107.476 44.6354C106.924 44.0837 106.648 43.2561 106.648 42.2078C106.648 41.1043 106.924 40.2768 107.476 39.6699C108.028 39.063 108.745 38.7871 109.628 38.7871C110.455 38.7871 111.173 39.063 111.724 39.6699C112.276 40.2768 112.552 41.1043 112.552 42.1526C112.552 42.2078 112.552 42.3181 112.552 42.4285H107.752C107.807 43.1457 107.973 43.6975 108.359 44.0285C108.69 44.4147 109.186 44.5802 109.683 44.5802C110.069 44.5802 110.4 44.4699 110.676 44.2492C111.007 44.0285 111.228 43.6975 111.393 43.2561ZM107.862 41.4906H111.448C111.393 40.9388 111.283 40.5526 111.062 40.2768C110.731 39.8354 110.29 39.6699 109.738 39.6699C109.242 39.6699 108.8 39.8354 108.469 40.1664C108.083 40.4975 107.917 40.9388 107.862 41.4906Z" fill="#161616"/>
<path d="M118.18 45.2978V36.415H119.283V45.2978H118.18Z" fill="#161616"/>
<path d="M125.24 45.2968V36.4141H126.289V45.2968H125.24Z" fill="#161616"/>
<path d="M136.661 43.2561L137.764 43.4216C137.599 44.0837 137.268 44.5802 136.771 44.9664C136.275 45.3526 135.668 45.5181 134.95 45.5181C134.013 45.5181 133.295 45.2423 132.744 44.6354C132.192 44.0837 131.916 43.2561 131.916 42.2078C131.916 41.1043 132.192 40.2768 132.744 39.6699C133.295 39.063 134.013 38.7871 134.895 38.7871C135.723 38.7871 136.44 39.063 136.992 39.6699C137.544 40.2768 137.819 41.1043 137.819 42.1526C137.819 42.2078 137.819 42.3181 137.819 42.4285H133.075C133.13 43.1457 133.295 43.6975 133.682 44.0285C134.013 44.4147 134.509 44.5802 135.006 44.5802C135.392 44.5802 135.723 44.4699 135.999 44.2492C136.275 44.0285 136.495 43.6975 136.661 43.2561ZM133.075 41.4906H136.661C136.606 40.9388 136.495 40.5526 136.275 40.2768C135.944 39.8354 135.502 39.6699 134.95 39.6699C134.454 39.6699 134.013 39.8354 133.682 40.1664C133.295 40.4975 133.13 40.9388 133.075 41.4906Z" fill="#161616"/>
<path d="M143.447 45.2975V38.8975H144.44V39.8354C144.937 39.1181 145.599 38.7871 146.482 38.7871C146.868 38.7871 147.199 38.8423 147.53 39.0078C147.861 39.1733 148.082 39.3388 148.247 39.5595C148.413 39.7802 148.523 40.0561 148.578 40.3871C148.633 40.6078 148.633 40.9388 148.633 41.4354V45.4078H147.53V41.4906C147.53 41.0492 147.475 40.7181 147.42 40.4975C147.309 40.2768 147.199 40.1112 146.978 39.9457C146.758 39.8354 146.537 39.725 146.206 39.725C145.765 39.725 145.323 39.8906 144.992 40.1664C144.661 40.4423 144.496 40.994 144.496 41.8216V45.3526L143.447 45.2975Z" fill="#161616"/>
<path d="M158.785 42.9797L159.834 43.1452C159.723 43.8625 159.447 44.4694 158.951 44.8556C158.454 45.297 157.903 45.4625 157.185 45.4625C156.303 45.4625 155.585 45.1866 155.089 44.5797C154.537 44.028 154.316 43.2004 154.316 42.097C154.316 41.3797 154.427 40.7728 154.647 40.2763C154.868 39.7797 155.199 39.3935 155.696 39.1177C156.137 38.8418 156.689 38.7314 157.241 38.7314C157.958 38.7314 158.51 38.897 158.951 39.2832C159.392 39.6142 159.668 40.1659 159.778 40.7728L158.73 40.9383C158.62 40.497 158.454 40.1659 158.178 39.9452C157.903 39.7246 157.627 39.6142 157.241 39.6142C156.689 39.6142 156.247 39.8349 155.916 40.2211C155.585 40.6073 155.42 41.2142 155.42 42.097C155.42 42.9797 155.585 43.5866 155.916 43.9728C156.247 44.359 156.689 44.5797 157.185 44.5797C157.627 44.5797 157.958 44.4694 158.234 44.1935C158.509 43.9177 158.73 43.5314 158.785 42.9797Z" fill="#161616"/>
<path d="M169.434 43.2561L170.538 43.4216C170.372 44.0837 170.041 44.5802 169.545 44.9664C169.048 45.3526 168.441 45.5181 167.724 45.5181C166.786 45.5181 166.069 45.2423 165.517 44.6354C164.965 44.0837 164.689 43.2561 164.689 42.2078C164.689 41.1043 164.965 40.2768 165.517 39.6699C166.069 39.063 166.786 38.7871 167.669 38.7871C168.552 38.7871 169.214 39.063 169.765 39.6699C170.317 40.2768 170.593 41.1043 170.593 42.1526C170.593 42.2078 170.593 42.3181 170.593 42.4285H165.793C165.848 43.1457 166.014 43.6975 166.4 44.0285C166.731 44.4147 167.227 44.5802 167.724 44.5802C168.11 44.5802 168.441 44.4699 168.717 44.2492C169.048 44.0285 169.269 43.6975 169.434 43.2561ZM165.848 41.4906H169.434C169.379 40.9388 169.269 40.5526 169.048 40.2768C168.717 39.8354 168.276 39.6699 167.724 39.6699C167.227 39.6699 166.786 39.8354 166.455 40.1664C166.124 40.4975 165.903 40.9388 165.848 41.4906Z" fill="#161616"/>
<path fill-rule="evenodd" clip-rule="evenodd" d="M0.9375 32.4976H170.262V32.7734H0.9375V32.4976Z" stroke="#171717" stroke-width="0.413793" stroke-miterlimit="10"/>
<path d="M175.649 7.72734V3.24875H177.918C178.1 3.24875 178.299 3.30135 178.513 3.40654C178.727 3.50768 178.909 3.66546 179.059 3.87988C179.213 4.09026 179.29 4.35727 179.29 4.68093C179.29 5.00863 179.211 5.28779 179.053 5.51839C178.895 5.74495 178.703 5.91689 178.477 6.03422C178.254 6.15154 178.044 6.21021 177.845 6.21021H176.207V5.48198H177.542C177.676 5.48198 177.819 5.41522 177.973 5.28172C178.131 5.14821 178.21 4.94795 178.21 4.68093C178.21 4.40582 178.131 4.21972 177.973 4.12262C177.819 4.02553 177.684 3.97698 177.566 3.97698H176.632V7.72734H175.649ZM178.355 5.61549L179.472 7.72734H178.392L177.299 5.61549H178.355ZM177.348 10.3975C176.676 10.3975 176.047 10.2721 175.461 10.0213C174.874 9.77042 174.358 9.42249 173.913 8.97746C173.468 8.53244 173.12 8.01661 172.869 7.42998C172.618 6.84336 172.493 6.21425 172.493 5.54266C172.493 4.87108 172.618 4.24197 172.869 3.65535C173.12 3.06872 173.468 2.55289 173.913 2.10787C174.358 1.66284 174.874 1.31491 175.461 1.06408C176.047 0.813242 176.676 0.687825 177.348 0.687825C178.019 0.687825 178.649 0.813242 179.235 1.06408C179.822 1.31491 180.338 1.66284 180.783 2.10787C181.228 2.55289 181.576 3.06872 181.826 3.65535C182.077 4.24197 182.203 4.87108 182.203 5.54266C182.203 6.21425 182.077 6.84336 181.826 7.42998C181.576 8.01661 181.228 8.53244 180.783 8.97746C180.338 9.42249 179.822 9.77042 179.235 10.0213C178.649 10.2721 178.019 10.3975 177.348 10.3975ZM177.348 9.23234C178.028 9.23234 178.647 9.06647 179.205 8.73472C179.763 8.40297 180.208 7.95795 180.54 7.39964C180.872 6.84133 181.038 6.22234 181.038 5.54266C181.038 4.86299 180.872 4.24399 180.54 3.68569C180.208 3.12738 179.763 2.68235 179.205 2.35061C178.647 2.01886 178.028 1.85299 177.348 1.85299C176.668 1.85299 176.049 2.01886 175.491 2.35061C174.933 2.68235 174.488 3.12738 174.156 3.68569C173.824 4.24399 173.658 4.86299 173.658 5.54266C173.658 6.22234 173.824 6.84133 174.156 7.39964C174.488 7.95795 174.933 8.40297 175.491 8.73472C176.049 9.06647 176.668 9.23234 177.348 9.23234Z" fill="#161616"/>
</g>
<defs>
<clipPath id="clip0_3206_1348">
<rect width="187.034" height="48" fill="white"/>
</clipPath>
</defs>
</svg>
