<svg width="33" height="40" viewBox="0 0 33 40" fill="none" xmlns="http://www.w3.org/2000/svg">
<path d="M31.9241 14.8218H30.4825V12.2498C30.4825 11.9072 30.2048 11.6295 29.8622 11.6295H28.9399V9.05751C28.9399 8.71492 28.6622 8.43722 28.3196 8.43722H25.5942V3.67404C25.5942 3.33145 25.3165 3.05375 24.9739 3.05375H21.4738V2.61191C21.4738 2.39252 21.3578 2.18944 21.169 2.07788L17.7974 0.0862684C17.7019 0.029774 17.5929 0 17.4819 0H15.707C15.596 0 15.487 0.029774 15.3915 0.0862684L12.0199 2.07788C11.8311 2.18944 11.7151 2.39252 11.7151 2.61191V3.05375H8.21487C7.87227 3.05375 7.59457 3.33145 7.59457 3.67404V8.43722H4.8693C4.5267 8.43722 4.249 8.71492 4.249 9.05751V11.6295H3.32658C2.98399 11.6295 2.70629 11.9072 2.70629 12.2498V14.8218H1.26482C0.922231 14.8218 0.644531 15.0995 0.644531 15.4421C0.644531 15.7847 0.922231 16.0624 1.26482 16.0624H2.46409V39.3797C2.46409 39.7223 2.74179 40 3.08438 40H10.9185C11.2611 40 11.5388 39.7223 11.5388 39.3797V27.0066H11.7599C12.1025 27.0066 12.3802 26.7289 12.3802 26.3863C12.3802 26.0437 12.1025 25.766 11.7599 25.766H11.5388V24.8303C11.5388 22.0427 13.8068 19.7747 16.5944 19.7747C17.9454 19.7747 19.2152 20.3005 20.1698 21.2549C21.1243 22.2094 21.65 23.4792 21.65 24.8303V25.766H21.429C21.0864 25.766 20.8087 26.0437 20.8087 26.3863C20.8087 26.7289 21.0864 27.0066 21.429 27.0066H21.65V39.3797C21.65 39.7223 21.9277 40 22.2703 40H30.1044C30.447 40 30.7247 39.7223 30.7247 39.3797V16.0624H31.9241C32.2667 16.0624 32.5444 15.7847 32.5444 15.4421C32.5444 15.0995 32.2667 14.8218 31.9241 14.8218ZM12.9557 2.96586L15.8765 1.24059H17.3125L20.2332 2.96586V3.05375H12.9557V2.96586ZM8.83526 4.29433H24.3536V8.43722H8.83526V4.29433ZM5.48968 9.67781H27.6992V11.6295H5.48968V9.67781ZM3.94697 12.8701H29.2418V14.8218H3.94697V12.8701ZM3.70477 38.7594V32.3506H10.2983V38.7594H3.70477ZM10.2983 31.1101H3.70477V27.0066H10.2983V31.1101ZM21.047 20.3777C19.8581 19.1888 18.2769 18.5342 16.5944 18.5342C13.1227 18.5342 10.2982 21.3586 10.2982 24.8303V25.766H3.70477V16.0627H29.4841V25.766H22.8906V24.8303C22.8906 23.1478 22.2359 21.5665 21.047 20.3777ZM29.484 27.0066V31.1101H22.8905V27.0066H29.484ZM22.8906 38.7594V32.3506H29.4841V38.7594H22.8906Z" fill="#0868A0"/>
<path d="M7.00096 18.8945C5.86964 18.8945 4.94922 19.815 4.94922 20.9463C4.94922 22.0776 5.86964 22.998 7.00096 22.998C8.13227 22.998 9.05269 22.0776 9.05269 20.9463C9.05269 19.815 8.13227 18.8945 7.00096 18.8945ZM7.00096 21.7574C6.55368 21.7574 6.1898 21.3935 6.1898 20.9463C6.1898 20.499 6.55368 20.1351 7.00096 20.1351C7.44823 20.1351 7.81211 20.499 7.81211 20.9463C7.81211 21.3935 7.44814 21.7574 7.00096 21.7574Z" fill="#0868A0"/>
<path d="M10.5971 4.83984C9.75521 4.83984 9.07031 5.52474 9.07031 6.36662C9.07031 7.2085 9.75521 7.8934 10.5971 7.8934C11.439 7.8934 12.1239 7.2085 12.1239 6.36662C12.1239 5.52474 11.439 4.83984 10.5971 4.83984ZM10.5971 6.65282C10.4393 6.65282 10.3109 6.52446 10.3109 6.36662C10.3109 6.20878 10.4393 6.08043 10.5971 6.08043C10.7548 6.08043 10.8833 6.20878 10.8833 6.36662C10.8833 6.52446 10.7548 6.65282 10.5971 6.65282Z" fill="#0868A0"/>
<path d="M22.5932 4.83887C21.7513 4.83887 21.0664 5.52377 21.0664 6.36565C21.0664 7.20753 21.7513 7.89242 22.5932 7.89242C23.4351 7.89242 24.12 7.20753 24.12 6.36565C24.12 5.52377 23.4351 4.83887 22.5932 4.83887ZM22.5932 6.65184C22.4354 6.65184 22.307 6.52349 22.307 6.36565C22.307 6.20781 22.4354 6.07945 22.5932 6.07945C22.7509 6.07945 22.8794 6.20781 22.8794 6.36565C22.8794 6.52349 22.7509 6.65184 22.5932 6.65184Z" fill="#0868A0"/>
<path d="M26.1845 22.998C27.3159 22.998 28.2363 22.0776 28.2363 20.9463C28.2363 19.815 27.3159 18.8945 26.1845 18.8945C25.0532 18.8945 24.1328 19.815 24.1328 20.9463C24.1328 22.0776 25.0531 22.998 26.1845 22.998ZM26.1845 20.1351C26.6318 20.1351 26.9957 20.499 26.9957 20.9463C26.9957 21.3935 26.6318 21.7574 26.1845 21.7574C25.7373 21.7574 25.3734 21.3935 25.3734 20.9463C25.3734 20.499 25.7373 20.1351 26.1845 20.1351Z" fill="#0868A0"/>
</svg>
