<svg width="18" height="18" viewBox="0 0 18 18" fill="none" xmlns="http://www.w3.org/2000/svg">
<path d="M9.0013 0.833984L16.543 5.33398C16.793 5.48676 16.9874 5.6951 17.1263 5.95898C17.2652 6.22287 17.3346 6.50065 17.3346 6.79232V15.834C17.3346 16.2923 17.1714 16.6847 16.8451 17.0111C16.5187 17.3375 16.1263 17.5007 15.668 17.5007H2.33464C1.8763 17.5007 1.48394 17.3375 1.15755 17.0111C0.831163 16.6847 0.667969 16.2923 0.667969 15.834V6.79232C0.667969 6.50065 0.737413 6.22287 0.876302 5.95898C1.01519 5.6951 1.20964 5.48676 1.45964 5.33398L9.0013 0.833984ZM9.0013 10.5423L15.5013 6.66732L9.0013 2.79232L2.5013 6.66732L9.0013 10.5423ZM9.0013 12.5007L2.33464 8.50065V15.834H15.668V8.50065L9.0013 12.5007Z" fill="#1C1B1F"/>
<path d="M9.0013 0.833984L16.543 5.33398C16.793 5.48676 16.9874 5.6951 17.1263 5.95898C17.2652 6.22287 17.3346 6.50065 17.3346 6.79232V15.834C17.3346 16.2923 17.1714 16.6847 16.8451 17.0111C16.5187 17.3375 16.1263 17.5007 15.668 17.5007H2.33464C1.8763 17.5007 1.48394 17.3375 1.15755 17.0111C0.831163 16.6847 0.667969 16.2923 0.667969 15.834V6.79232C0.667969 6.50065 0.737413 6.22287 0.876302 5.95898C1.01519 5.6951 1.20964 5.48676 1.45964 5.33398L9.0013 0.833984ZM9.0013 10.5423L15.5013 6.66732L9.0013 2.79232L2.5013 6.66732L9.0013 10.5423ZM9.0013 12.5007L2.33464 8.50065V15.834H15.668V8.50065L9.0013 12.5007Z" fill="#008080"/>
</svg>
