<svg width="33" height="82" viewBox="0 0 33 82" fill="none" xmlns="http://www.w3.org/2000/svg">
<line x1="16.5" y1="-2.18557e-08" x2="16.5" y2="82" stroke="#2C8BBE"/>
<circle cx="16.5" cy="40.5" r="16.5" fill="#2C8BBE"/>
<path d="M13.192 46.192C12.1147 46.192 11.1653 45.952 10.344 45.472C9.53333 44.9813 8.89867 44.304 8.44 43.44C7.992 42.5653 7.768 41.552 7.768 40.4C7.768 39.2587 7.992 38.256 8.44 37.392C8.89867 36.5173 9.53333 35.8347 10.344 35.344C11.1653 34.8533 12.1147 34.608 13.192 34.608C14.2907 34.608 15.2453 34.8533 16.056 35.344C16.8667 35.8347 17.496 36.5173 17.944 37.392C18.4027 38.256 18.632 39.2587 18.632 40.4C18.632 41.552 18.4027 42.5653 17.944 43.44C17.496 44.304 16.8667 44.9813 16.056 45.472C15.2453 45.952 14.2907 46.192 13.192 46.192ZM13.192 45.008C14.0027 45.008 14.712 44.8267 15.32 44.464C15.9387 44.0907 16.4133 43.5627 16.744 42.88C17.0853 42.1867 17.256 41.36 17.256 40.4C17.256 39.44 17.0853 38.6187 16.744 37.936C16.4133 37.2427 15.9387 36.7147 15.32 36.352C14.712 35.9893 14.0027 35.808 13.192 35.808C12.392 35.808 11.6827 35.9893 11.064 36.352C10.456 36.7147 9.98133 37.2427 9.64 37.936C9.30933 38.6187 9.144 39.44 9.144 40.4C9.144 41.36 9.30933 42.1867 9.64 42.88C9.98133 43.5627 10.456 44.0907 11.064 44.464C11.6827 44.8267 12.392 45.008 13.192 45.008ZM20.5106 46V37.936H21.7266L21.8226 39.472C22.004 39.1093 22.2333 38.8 22.5106 38.544C22.7986 38.288 23.14 38.0907 23.5346 37.952C23.94 37.8133 24.3986 37.744 24.9106 37.744V39.152H24.4146C24.0733 39.152 23.748 39.2 23.4386 39.296C23.1293 39.3813 22.852 39.5253 22.6066 39.728C22.372 39.9307 22.1853 40.208 22.0466 40.56C21.9186 40.9013 21.8546 41.328 21.8546 41.84V46H20.5106Z" fill="white"/>
</svg>
