<svg width="22" height="21" viewBox="0 0 22 21" fill="none" xmlns="http://www.w3.org/2000/svg">
<path d="M15.7363 7.88916H6.2636C3.39523 7.88916 1.96104 7.88916 1.30159 8.83649C0.642146 9.78382 1.13227 11.14 2.11251 13.8525L3.31716 17.1858C3.82827 18.6 4.08383 19.3073 4.65433 19.7093C5.22483 20.1114 5.97264 20.1114 7.46825 20.1114H14.5318C16.0273 20.1114 16.7751 20.1114 17.3456 19.7093C17.9161 19.3073 18.1716 18.6 18.6829 17.1858L19.8874 13.8525C20.8677 11.14 21.3579 9.78382 20.6984 8.83649C20.039 7.88916 18.6047 7.88916 15.7363 7.88916Z" stroke="#161616" stroke-width="1.5" stroke-linecap="square"/>
<path d="M18.7772 6.111C18.7772 5.59329 18.7772 5.33443 18.6927 5.13025C18.5799 4.85799 18.3635 4.64168 18.0913 4.52891C17.8871 4.44434 17.6282 4.44434 17.1105 4.44434H4.88834C4.37063 4.44434 4.11178 4.44434 3.90759 4.52891C3.63533 4.64168 3.41902 4.85799 3.30626 5.13025C3.22168 5.33443 3.22168 5.59329 3.22168 6.111" stroke="#6BAB44" stroke-width="1.5" stroke-linecap="round" stroke-linejoin="round"/>
<path d="M16 2.66666C16 2.14895 16 1.8901 15.9154 1.68591C15.8027 1.41366 15.5863 1.19734 15.3141 1.08458C15.1099 1 14.851 1 14.3333 1H7.66666C7.14895 1 6.8901 1 6.68591 1.08458C6.41366 1.19734 6.19734 1.41366 6.08458 1.68591C6 1.8901 6 2.14895 6 2.66666" stroke="#6BAB44" stroke-width="1.5" stroke-linecap="round" stroke-linejoin="round"/>
</svg>
