<svg width="97" height="52" viewBox="0 0 97 52" fill="none" xmlns="http://www.w3.org/2000/svg">
<path d="M92.4991 51.0205H4.50084C2.33547 51.0205 0.580078 49.2653 0.580078 47.0996V4.9207C0.580078 2.75494 2.33547 0.999775 4.50084 0.999775H92.4991C94.6643 0.999775 96.42 2.75494 96.42 4.9207V47.0996C96.42 49.2653 94.6643 51.0205 92.4991 51.0205Z" fill="white" stroke="#222526" stroke-width="0.841401" stroke-miterlimit="10"/>
<path d="M48.8595 35.061C48.8028 35.1776 48.7142 35.2696 48.5941 35.337C48.4728 35.4043 48.3156 35.4379 48.1222 35.4379H47.3683V33.897H48.1143C48.3123 33.897 48.4716 33.9296 48.593 33.9952C48.7142 34.0608 48.8028 34.1511 48.8595 34.2667C48.9156 34.3817 48.9442 34.5141 48.9442 34.6627C48.9442 34.8114 48.9156 34.9443 48.8595 35.061ZM49.3923 34.0115C49.2925 33.8185 49.1416 33.6659 48.9402 33.5543C48.7389 33.4432 48.4845 33.3871 48.1783 33.3871H46.7737V37.3271H47.3683V35.9422H48.176C48.4812 35.9422 48.7355 35.8861 48.9374 35.7739C49.1394 35.6617 49.2908 35.5092 49.3912 35.3156C49.4922 35.1227 49.5421 34.905 49.5421 34.6627C49.5421 34.4215 49.4922 34.2044 49.3923 34.0115Z" fill="#222526"/>
<path d="M52.2834 35.7347C52.1123 35.7992 51.9104 35.8328 51.6776 35.8356L52.4781 37.3271H53.1557L52.2834 35.7347Z" fill="#222526"/>
<path d="M52.3221 35.0015C52.266 35.1064 52.1768 35.1866 52.0557 35.2416C51.9345 35.2971 51.778 35.3246 51.5856 35.3246H50.8312V33.897H51.5778C51.7741 33.897 51.9328 33.9262 52.054 33.9845C52.1752 34.0429 52.2643 34.1265 52.3216 34.2358C52.3782 34.3447 52.4068 34.4737 52.4068 34.6223C52.4068 34.7699 52.3788 34.8961 52.3221 35.0015ZM52.8556 33.9806C52.7552 33.7955 52.6043 33.6502 52.4023 33.5448C52.2004 33.4399 51.9463 33.3871 51.6412 33.3871H50.2366V37.3271H50.8312V35.8362H51.6395C51.6524 35.8362 51.6653 35.8362 51.6776 35.8356C51.9104 35.8328 52.1123 35.7992 52.2834 35.7347C52.3238 35.7201 52.3631 35.7032 52.4001 35.6842C52.602 35.5832 52.7535 35.4407 52.8545 35.2584C52.9549 35.0756 53.0053 34.8635 53.0053 34.6223C53.0053 34.38 52.9554 34.1663 52.8556 33.9806Z" fill="#222526"/>
<path d="M56.5644 35.357C56.5644 35.0362 56.5128 34.7658 56.4096 34.5459C56.3064 34.326 56.1651 34.1594 55.9861 34.0461C55.8072 33.9322 55.6052 33.8756 55.3792 33.8756C55.152 33.8756 54.9495 33.9322 54.7711 34.0461C54.5928 34.1594 54.452 34.326 54.3488 34.5459C54.2455 34.7658 54.1939 35.0362 54.1939 35.357C54.1939 35.6779 54.2455 35.9482 54.3488 36.1681C54.452 36.388 54.5928 36.5546 54.7711 36.6679C54.9495 36.7818 55.152 36.8384 55.3792 36.8384C55.6052 36.8384 55.8072 36.7818 55.9861 36.6679C56.1651 36.5546 56.3064 36.388 56.4096 36.1681C56.5128 35.9482 56.5644 35.6779 56.5644 35.357ZM57.1529 35.357C57.1529 35.7777 57.076 36.139 56.9223 36.4413C56.7681 36.7431 56.5577 36.9753 56.2901 37.1374C56.0226 37.3001 55.7191 37.3809 55.3792 37.3809C55.0381 37.3809 54.7336 37.3001 54.4666 37.1374C54.199 36.9753 53.9881 36.7431 53.8344 36.4402C53.6801 36.1373 53.6033 35.7766 53.6033 35.357C53.6033 34.9363 53.6801 34.5751 53.8344 34.2727C53.9881 33.9709 54.199 33.7387 54.4666 33.5766C54.7336 33.4139 55.0381 33.3332 55.3792 33.3332C55.7191 33.3332 56.0226 33.4139 56.2901 33.5766C56.5577 33.7387 56.7681 33.9709 56.9223 34.2727C57.076 34.5751 57.1529 34.9363 57.1529 35.357Z" fill="#222526"/>
<path d="M57.5322 33.8987V33.3871H60.5815V33.8987H59.3525V37.3271H58.7595V33.8987H57.5322Z" fill="#222526"/>
<path d="M61.2528 37.3271V33.3871H63.7232V33.8987H61.8474V35.0991H63.5941V35.609H61.8474V36.8156H63.7462V37.3271H61.2528Z" fill="#222526"/>
<path d="M67.7921 34.6682H67.1919C67.1689 34.5397 67.1263 34.427 67.0634 34.3294C67 34.2323 66.9232 34.1493 66.8323 34.0814C66.7415 34.0136 66.6394 33.962 66.5272 33.9277C66.415 33.893 66.2961 33.8756 66.1704 33.8756C65.9432 33.8756 65.7402 33.9328 65.5618 34.0467C65.3829 34.1611 65.2415 34.3283 65.1383 34.5487C65.0351 34.7697 64.9835 35.039 64.9835 35.357C64.9835 35.6779 65.0351 35.9482 65.1383 36.1687C65.2415 36.3897 65.3829 36.5563 65.5624 36.669C65.7419 36.7818 65.9438 36.8384 66.1687 36.8384C66.2927 36.8384 66.4111 36.8216 66.5232 36.7874C66.636 36.7537 66.7375 36.7032 66.8284 36.6365C66.9193 36.5697 66.9967 36.4879 67.0601 36.3914C67.124 36.2943 67.1678 36.1833 67.1919 36.0576L67.7921 36.0593C67.7601 36.2528 67.6984 36.4306 67.607 36.5933C67.515 36.7554 67.3977 36.8951 67.2547 37.0123C67.1117 37.1301 66.9484 37.2204 66.765 37.2849C66.5816 37.3489 66.3813 37.3809 66.1648 37.3809C65.8232 37.3809 65.5197 37.3001 65.2527 37.1374C64.9857 36.9753 64.7759 36.7431 64.6228 36.4402C64.4691 36.1373 64.3928 35.7766 64.3928 35.357C64.3928 34.9363 64.4697 34.5751 64.6234 34.2727C64.7776 33.9709 64.988 33.7387 65.2544 33.5766C65.5214 33.4139 65.8249 33.3332 66.1648 33.3332C66.3735 33.3332 66.5692 33.3629 66.7504 33.4223C66.9322 33.4824 67.0954 33.5693 67.2401 33.6843C67.3848 33.7987 67.5049 33.939 67.5997 34.1033C67.695 34.2682 67.759 34.4567 67.7921 34.6682Z" fill="#222526"/>
<path d="M68.3098 33.8987V33.3871H71.3591V33.8987H70.13V37.3271H69.5371V33.8987H68.3098Z" fill="#222526"/>
<path d="M72.0305 37.3271V33.3871H74.5009V33.8987H72.6251V35.0991H74.3719V35.609H72.6251V36.8156H74.5239V37.3271H72.0305Z" fill="#222526"/>
<path d="M75.8921 36.8077H76.5405C76.8406 36.8077 77.0902 36.7511 77.2888 36.6378C77.4874 36.5239 77.6366 36.359 77.7353 36.143C77.834 35.9271 77.8834 35.6629 77.8834 35.3515C77.8834 35.0425 77.834 34.7799 77.7359 34.5645C77.6383 34.3491 77.4919 34.1854 77.2983 34.0737C77.1048 33.9621 76.8642 33.9066 76.577 33.9066H75.8921V36.8077ZM76.5731 37.3271H75.2975V33.3871H76.6134C76.9994 33.3871 77.3309 33.4657 77.608 33.6227C77.8851 33.7798 78.0977 34.0047 78.2458 34.2981C78.3938 34.5909 78.4679 34.9421 78.4679 35.3515C78.4679 35.7616 78.3933 36.1144 78.2441 36.4095C78.0949 36.7045 77.8789 36.9311 77.5968 37.0899C77.3146 37.2481 76.9736 37.3271 76.5731 37.3271Z" fill="#222526"/>
<path d="M68.8518 15.4794C65.1547 15.4794 62.1469 18.4871 62.1469 22.1842C62.1469 25.8813 65.1547 28.8891 68.8518 28.8891C72.5489 28.8891 75.5566 25.8813 75.5566 22.1842C75.5566 18.4871 72.5489 15.4794 68.8518 15.4794ZM68.8518 29.7305C64.6908 29.7305 61.3055 26.3452 61.3055 22.1842C61.3055 18.0232 64.6908 14.638 68.8518 14.638C73.0128 14.638 76.398 18.0232 76.398 22.1842C76.398 26.3452 73.0128 29.7305 68.8518 29.7305Z" fill="#222526"/>
<path d="M40.7829 25.4152H42.1428C42.7758 25.4152 43.309 25.3024 43.7425 25.0769C44.176 24.8509 44.5024 24.4997 44.7217 24.0235C44.9408 23.5467 45.0505 22.9314 45.0505 22.1764C45.0505 21.4281 44.9408 20.8166 44.7217 20.3415C44.5024 19.867 44.1769 19.5175 43.745 19.2932C43.3131 19.0693 42.7807 18.9572 42.1478 18.9572H40.7829V25.4152ZM42.2318 27.25H38.6417V17.1223H42.2615C43.2801 17.1223 44.1571 17.3248 44.8923 17.7281C45.6274 18.132 46.1936 18.7115 46.5909 19.4665C46.9881 20.2215 47.1868 21.1246 47.1868 22.1764C47.1868 23.2315 46.9881 24.1379 46.5909 24.8963C46.1936 25.6547 45.6249 26.2364 44.8849 26.642C44.1447 27.0475 43.2604 27.25 42.2318 27.25Z" fill="#222526"/>
<path d="M48.7693 17.1223H51.4102L54.1986 23.927H54.3175L57.1064 17.1223H59.7473V27.25H57.6702V20.6585H57.586L54.9654 27.2006H53.5512L50.93 20.6338H50.8459V27.25H48.7693V17.1223Z" fill="#222526"/>
<path d="M73.2477 20.6662H71.0819C71.0421 20.3863 70.9613 20.1366 70.8396 19.9173C70.7173 19.698 70.5608 19.5106 70.3695 19.3558C70.1782 19.201 69.9583 19.0821 69.7093 18.9996C69.4602 18.9177 69.191 18.8762 68.901 18.8762C68.3765 18.8762 67.9199 19.0058 67.5312 19.2644C67.1419 19.523 66.8407 19.8988 66.6264 20.3919C66.4121 20.8849 66.305 21.4823 66.305 22.1846C66.305 22.9065 66.4127 23.5129 66.6286 24.0043C66.8446 24.4957 67.1469 24.8664 67.5362 25.1172C67.9249 25.3674 68.3754 25.4924 68.8858 25.4924C69.173 25.4924 69.4389 25.4549 69.6846 25.3791C69.9303 25.3034 70.1485 25.1918 70.3398 25.0454C70.531 24.8984 70.6903 24.7195 70.8171 24.5086C70.9439 24.2977 71.032 24.057 71.0819 23.7866L73.2477 23.7967C73.1916 24.2612 73.0524 24.7088 72.8298 25.1391C72.6071 25.5693 72.3086 25.9535 71.9345 26.2912C71.5604 26.6295 71.1155 26.8965 70.5995 27.0922C70.0834 27.2886 69.5012 27.3867 68.8516 27.3867C67.9479 27.3867 67.1413 27.1825 66.4312 26.7736C65.7205 26.3647 65.1601 25.7729 64.7495 24.9983C64.3389 24.2236 64.1342 23.2857 64.1342 22.1846C64.1342 21.0801 64.3417 20.1406 64.7568 19.3659C65.1724 18.5913 65.7362 18 66.448 17.5928C67.1604 17.1861 67.9614 16.9825 68.8516 16.9825C69.4383 16.9825 69.983 17.065 70.4856 17.2293C70.9888 17.3942 71.4341 17.6343 71.8234 17.949C72.2127 18.2637 72.5297 18.6485 72.7753 19.104C73.021 19.5589 73.1787 20.0794 73.2477 20.6662Z" fill="#28DE22"/>
<path d="M80.4422 23.2696L81.6892 19.4368H81.7683L83.013 23.2696H80.4422ZM83.1084 17.1229H80.3491L76.8534 27.25H79.1476L79.8987 24.9406H83.5554L84.3054 27.25H86.5996L83.1084 17.1229Z" fill="#222526"/>
<path d="M22.2381 32.5528L23.191 34.5234C23.2521 34.649 23.1586 34.7949 23.0202 34.7949H20.1869C20.0467 34.7949 19.955 34.649 20.0161 34.5234L20.9672 32.5528C21.0139 32.4575 20.9707 32.3442 20.8737 32.2993C20.2912 32.0244 19.8849 31.431 19.8849 30.7444C19.8849 30.1638 20.1743 29.6494 20.6184 29.3381C20.9456 29.1065 21.359 28.9875 21.7995 29.038C22.089 29.0706 22.3604 29.1783 22.5887 29.3381C22.9717 29.6079 23.2414 30.0303 23.306 30.5105C23.4103 31.2941 22.9824 31.9919 22.3334 32.2993C22.2364 32.3442 22.1932 32.4575 22.2381 32.5528ZM16.8269 14.7151C16.8269 14.0229 17.3914 13.4586 18.0835 13.4586H25.1218C25.8158 13.4586 26.3803 14.0229 26.3803 14.7151V22.6221H16.8269V14.7151ZM32.4711 23.082L32.2968 23.031C31.3654 22.7595 30.4003 22.6221 29.4301 22.6221H29.0158V14.7151C29.0158 12.5645 27.2724 10.8211 25.1218 10.8211H18.0835C15.9329 10.8211 14.1896 12.5645 14.1896 14.7151V22.6221H13.7754C12.8064 22.6221 11.8422 22.7595 10.9117 23.0304L10.7342 23.082C10.536 23.1398 10.3998 23.3216 10.3998 23.528V40.2937C10.3998 40.499 10.5364 40.6808 10.7342 40.7397L10.7376 40.7408C11.7835 41.0454 12.8674 41.2002 13.9568 41.2002H29.2485C30.3391 41.2002 31.4241 41.0454 32.4711 40.7397C32.6689 40.6808 32.8054 40.499 32.8054 40.2937V23.528C32.8054 23.3216 32.6693 23.1398 32.4711 23.082Z" fill="#28DE22"/>
<path d="M17.1076 22.3414H26.1V14.7149C26.1 14.177 25.6612 13.7389 25.122 13.7389H18.0837C17.5454 13.7389 17.1076 14.177 17.1076 14.7149V22.3414ZM26.6609 22.9023H16.5466V14.7149C16.5466 13.8674 17.2361 13.178 18.0837 13.178H25.122C25.9705 13.178 26.6609 13.8674 26.6609 14.7149V22.9023ZM20.7148 32.4309C20.7146 32.4309 20.7144 32.4315 20.7143 32.4315L20.7148 32.4309ZM22.4548 32.5521C22.4544 32.5521 22.4541 32.5526 22.4537 32.5526C22.4541 32.5526 22.4544 32.5521 22.4548 32.5521ZM20.3321 34.5142H22.8753L21.9846 32.6721C21.9312 32.5588 21.9254 32.4315 21.9683 32.3131C22.0118 32.1936 22.0997 32.0983 22.2159 32.0444C22.7841 31.7752 23.1115 31.1733 23.0282 30.5473C22.9756 30.1563 22.7566 29.799 22.4274 29.5674C22.2309 29.4299 22.0028 29.343 21.7685 29.3166C21.4161 29.2762 21.0653 29.3654 20.7808 29.5668C20.395 29.8372 20.1656 30.2769 20.1656 30.7442C20.1656 31.2973 20.4906 31.8077 20.9937 32.0456C21.1073 32.0983 21.1977 32.197 21.2399 32.3159C21.2821 32.4348 21.2747 32.5627 21.2191 32.676L20.3321 34.5142ZM20.269 34.6444L20.2689 34.6449C20.2689 34.6449 20.269 34.6449 20.269 34.6444ZM23.0204 35.0752H20.1871C20.0238 35.0752 19.8748 34.9927 19.7883 34.8542C19.702 34.7167 19.6929 34.5468 19.764 34.4004L20.675 32.5128C20.0212 32.1673 19.6046 31.4829 19.6046 30.7442C19.6046 30.0941 19.9235 29.4827 20.4577 29.1085C20.8538 28.8275 21.3422 28.7035 21.8315 28.759C22.1583 28.7961 22.4761 28.9167 22.7499 29.1085C23.2067 29.4299 23.5106 29.9275 23.5842 30.4727C23.696 31.313 23.2749 32.1224 22.5311 32.5139L23.4437 34.4009C23.5144 34.5468 23.5052 34.7162 23.4189 34.8542C23.3322 34.9921 23.1832 35.0752 23.0204 35.0752ZM13.7756 22.9023C12.8327 22.9023 11.8956 23.0358 10.9904 23.2995L10.8128 23.3511C10.7349 23.3741 10.6804 23.4464 10.6804 23.5278V40.2935C10.6804 40.3743 10.7357 40.4472 10.815 40.4708C11.8371 40.7686 12.8938 40.9195 13.957 40.9195H29.2487C30.313 40.9195 31.3708 40.7681 32.3928 40.4702C32.4699 40.4472 32.5252 40.3743 32.5252 40.2935V23.5278C32.5252 23.4464 32.4707 23.3741 32.3927 23.3511L32.2185 23.3C31.3122 23.0358 30.3742 22.9023 29.4303 22.9023H28.7355V14.7149C28.7355 12.7225 27.1145 11.1014 25.122 11.1014H18.0837C16.0912 11.1014 14.4702 12.7225 14.4702 14.7149V22.9023H13.7756ZM29.2487 41.4805H13.957C12.8408 41.4805 11.7312 41.3223 10.6593 41.0098L10.6537 41.0082C10.3392 40.9139 10.1195 40.62 10.1195 40.2935V23.5278C10.1195 23.1985 10.3401 22.9046 10.6559 22.8126L10.8335 22.761C11.7898 22.4822 12.7797 22.3414 13.7756 22.3414H13.9093V14.7149C13.9093 12.4134 15.7819 10.5405 18.0837 10.5405H25.122C27.4238 10.5405 29.2964 12.4134 29.2964 14.7149V22.3414H29.4303C30.4273 22.3414 31.4182 22.4828 32.3755 22.7615L32.5497 22.8126C32.8655 22.9046 33.0861 23.1985 33.0861 23.5278V40.2935C33.0861 40.62 32.8664 40.9139 32.5519 41.0082C31.4768 41.3217 30.3662 41.4805 29.2487 41.4805Z" fill="#222526"/>
</svg>
