<svg width="64" height="61" viewBox="0 0 64 61" fill="none" xmlns="http://www.w3.org/2000/svg">
<g clip-path="url(#clip0_10864_184)">
<path d="M0 0.00195312H64V60.9986H0V0.00195312Z" fill="#FEFEFE"/>
<path d="M0 0.00195312H64V60.9986H0V0.00195312ZM1.53125 0.345684L1.21875 0.408181L0.90625 0.564422L0.65625 0.814409L0.46875 1.12689L0.40625 1.34563V48.4055L5.03125 48.4368H59.75L63.5938 48.4055L63.625 46.3744V3.40802L63.5938 1.37688L63.5 1.06439L63.3125 0.78316L63.0312 0.533174L62.7812 0.408181L62.5 0.345684H1.53125Z" fill="#676C71"/>
<path d="M31.25 9.62598H32.9375L33.9062 9.75097L34.75 9.93846L35.5938 10.2197L36.375 10.5634L37.0938 10.9697L37.6875 11.3759L38.0938 11.6884L38.5625 12.0946V12.1883L35.8438 14.9069L35.6875 14.8444L35.4375 14.6257L34.9375 14.282L34.5625 14.0632L33.9688 13.8132L33.3125 13.6258L32.6875 13.532H31.5625L30.9688 13.6258L30.2188 13.8445L29.6562 14.0945L29.0625 14.4382L28.6562 14.7507L28.2188 15.1257L27.875 15.5007L27.5 16.0006L27.2188 16.4694L26.9688 16.9693L26.7812 17.5005L26.625 18.063L26.5 18.8755V19.7504L26.625 20.5316L26.7812 21.0629L26.8125 21.2816L26.9688 21.5941L27.2188 22.1253L27.5 22.5628L27.8125 22.969L28.1875 23.4065L28.4375 23.6252L28.8125 23.9377L29.2812 24.2502L29.9375 24.5939L30.4375 24.7814L30.875 24.9064L31.6875 25.0314H32.4688L33.0625 24.9689L33.5938 24.8751L34.25 24.6877L34.8125 24.4377L35.2812 24.1877H35.4688L35.5625 24.2814L35.9375 24.5627L37.0625 25.4376L37.375 25.6876L38.1875 26.3126L38.4062 26.4688L38.4375 26.5938L38.0625 26.9688L37.4688 27.4063L36.8438 27.7812L36.3438 28.0312L35.6875 28.3125L35.2188 28.4687L34.3438 28.6874L33.5625 28.8124L33.0312 28.8749H31.4062L30.5938 28.7812L29.8125 28.6249L28.9688 28.3749L28.1875 28.0625L27.5938 27.75L27.1875 27.5312L26.75 27.25L26.3125 26.9375L25.9688 26.6563L25.3438 26.0938L25.0938 25.8438L24.875 25.5939L24.4688 25.0939L24.1562 24.6564L23.7812 24.0627L23.375 23.3127L23.0625 22.5628L22.8125 21.7816L22.625 20.9066L22.5312 20.1879L22.5 19.6879V18.7817L22.5625 18.0318L22.6875 17.2818L22.875 16.5318L23.125 15.7819L23.4688 15.0007L23.7812 14.407L24.1562 13.8132L24.5938 13.2195L24.8438 12.9383L25.0625 12.6883L25.375 12.3446L25.625 12.1258L25.9688 11.8134L26.5 11.4071L26.9062 11.1259L27.4375 10.8134L28.1562 10.4384L29.0312 10.0947L29.7812 9.87596L30.5312 9.71972L31.25 9.62598Z" fill="#EE4932"/>
<path d="M26.7812 21.126H26.8438L26.9062 21.3135L27.1875 21.9384L27.4375 22.3759L27.75 22.8134L28.0312 23.1571L28.25 23.4071L28.5 23.6258L28.875 23.9383L29.3438 24.2508L30 24.5945L30.5 24.782L30.9375 24.907L31.75 25.032H32.5312L33.125 24.9695L33.6562 24.8758L34.3125 24.6883L34.875 24.4383L35.3438 24.1883H35.5312L35.625 24.2821L36 24.5633L37.125 25.4382L37.4375 25.6882L38.25 26.3132L38.4688 26.4694L38.5 26.5944L38.125 26.9694L37.5312 27.4069L36.9062 27.7819L36.4062 28.0318L35.75 28.3131L35.2812 28.4693L34.4062 28.6881L33.625 28.8131L33.0938 28.8756H31.4688L30.6562 28.7818L29.875 28.6256L29.0312 28.3756L28.25 28.0631L27.6562 27.7506L27.25 27.5319L26.8125 27.2506L26.375 26.9382L26.0312 26.6569L25.4062 26.0945L25.1562 25.8445L24.9375 25.5945L24.5312 25.0945L24.2188 24.657L23.8438 24.0633L23.6562 23.7196V23.5633L24.2188 23.1259L24.6562 22.7821L25.0625 22.4697L25.375 22.2197L25.7812 21.9072L26.2188 21.5635L26.7188 21.1572L26.7812 21.126Z" fill="#00AD57"/>
<path d="M32.2812 17.501H41.1875L41.2188 17.5322L41.375 18.7197L41.4062 19.2509V20.1258L41.3438 20.907L41.1875 21.8757L40.9375 22.8132L40.625 23.6569L40.3438 24.2506L40 24.8443L39.7812 25.1881L39.5 25.563L39.25 25.8755L38.9062 26.2505L38.5938 26.563L38.2812 26.3755L37.9688 26.1255L37.5312 25.7818L36.6875 25.1256L36.25 24.7818L35.6875 24.3444L35.5312 24.2506L35.4688 24.0944L35.8125 23.8131L36.1562 23.5006L36.4688 23.0944L36.75 22.6257L36.9688 22.157L37.1562 21.5945L37.2188 21.2508H33.4375L32.25 21.2195V17.5322L32.2812 17.501Z" fill="#0080C5"/>
<path d="M23.5938 14.876L23.75 15.0322L24.0312 15.2822L24.5312 15.6572L25 16.0322L25.5312 16.4384L25.9688 16.7821L26.375 17.0946L26.6562 17.3133L26.8438 17.4383L26.7188 17.9383L26.5938 18.6258L26.5625 18.8758V19.7507L26.6875 20.5319L26.8438 21.0631V21.1256L26.6562 21.2506L26.1562 21.6569L25.3438 22.2818L24.9062 22.6256L24.375 23.0318L23.9062 23.4068L23.6875 23.563L23.625 23.6567L23.375 23.1568L23.125 22.5631L22.875 21.7818L22.6875 20.9069L22.5938 20.1882L22.5625 19.6882V18.782L22.625 18.0321L22.75 17.2821L22.9375 16.5321L23.1875 15.7822L23.5312 15.001L23.5938 14.876Z" fill="#F9AB1B"/>
<path d="M24.375 35.6562H24.9375L25.3438 35.7812L25.75 36.0625L25.7188 35.7812L25.75 35.75H26.4062V39.0936L26.3438 39.4998L26.2188 39.8435L26 40.156L25.6875 40.406L25.3125 40.5622L25.0312 40.6247H24.5312L24.0938 40.531L23.75 40.3435L23.4375 40.0623L23.2812 39.8123L23.2188 39.5935L23.4688 39.4685L23.7812 39.3435H23.8438L24.0312 39.656L24.25 39.8435L24.5 39.9373L24.625 39.9685H24.9062L25.3125 39.8435L25.5625 39.6248L25.6875 39.2811L25.75 38.8748L25.4688 39.0311L25.1562 39.1873L24.9375 39.2498H24.4375L24.0312 39.1248L23.6875 38.9061L23.4688 38.6873L23.2188 38.2499L23.0938 37.8436V37.0937L23.2188 36.6249L23.4375 36.25L23.6562 36L23.9375 35.8125L24.375 35.6562Z" fill="#676C71"/>
<path d="M20.7188 35.6562H21.3125L21.6562 35.75L22.0312 35.9375L22.3438 36.2187L22.5625 36.5312L22.7188 36.9374L22.7812 37.2499V37.6249L22.6875 38.0624L22.4375 38.5623L22.1875 38.8436L21.8438 39.0623L21.4375 39.2186L21.2812 39.2498H20.7812L20.3438 39.1248L20 38.9373L19.6875 38.6561L19.4688 38.3124L19.3125 37.8749L19.2812 37.7186V37.2187L19.4062 36.7187L19.625 36.3125L19.8438 36.0625L20.2188 35.8125L20.5625 35.6875L20.7188 35.6562Z" fill="#676C71"/>
<path d="M16.9062 35.6562H17.5312L17.9375 35.7812L18.1875 35.9062L18.5 36.1562L18.7188 36.4687L18.875 36.7812L18.9688 37.1562V37.7499L18.8125 38.2811L18.5938 38.6248L18.3125 38.9061L18.0625 39.0623L17.625 39.2186L17.4688 39.2498H17.0312L16.5312 39.1248L16.125 38.8748L15.875 38.6248L15.6875 38.3124L15.5625 38.0311L15.5 37.7811V37.1249L15.5938 36.7812L15.8125 36.3437L16.0938 36.0312L16.4375 35.8125L16.75 35.6875L16.9062 35.6562Z" fill="#676C71"/>
<path d="M33.3125 34.4375H35.125L35.5312 34.5312L35.875 34.7187L36.125 34.9687L36.3438 35.3437L36.4062 35.5624V36.1562L36.3125 36.4686L36.0938 36.7811L35.8125 37.0311L35.4375 37.2186L35.125 37.2811L34.7188 37.3123H34V39.1247H33.3125V34.4375Z" fill="#676C71"/>
<path d="M12.4688 34.3438H13.0938L13.5938 34.4375L14.125 34.6875L14.4062 34.9062L14.5625 35.0625L14.5 35.1875L14.125 35.5624L14 35.4999L13.75 35.2812L13.375 35.0937L13.125 35.0312H12.5L12.1562 35.125L11.8438 35.2812L11.5 35.5624L11.25 35.9374L11.125 36.2499L11.0625 36.6249V36.9686L11.1875 37.4686L11.375 37.8436L11.6875 38.1873L12.0312 38.406L12.4375 38.531H13.2188L13.6562 38.3748L13.9688 38.156L14.1875 37.8748L14.3438 37.5311L14.375 37.2498L12.75 37.2186V36.5624H15.0312L15.0938 36.7811V37.2811L15 37.7498L14.8438 38.1248L14.625 38.4373L14.5 38.5935L14.1562 38.8748L13.6562 39.1247L13.2812 39.2185L13.0625 39.2497H12.5312L11.9688 39.1247L11.4688 38.8748L11.1875 38.656L10.875 38.3435L10.5938 37.9061L10.4375 37.4686L10.3438 36.9999V36.5936L10.4375 36.0624L10.6562 35.5624L10.9375 35.1562L11.2188 34.875L11.5312 34.6562L11.8438 34.5L12.25 34.375L12.4688 34.3438Z" fill="#676C71"/>
<path d="M41.0938 52.6553H41.4688L41.75 52.7178L42.0938 52.9053L42.3438 53.1552L42.5312 53.4677L42.6875 53.9052L42.7188 54.0927V54.8739L42.5938 55.3739L42.375 55.8114L42.0625 56.1238L41.6875 56.3113L41.5625 56.3426H41L40.6562 56.2176L40.4688 56.0926L40.3125 55.9676L40.125 55.7176L39.9688 55.4051L39.8438 54.9052V54.0302L39.9688 53.5927L40.1562 53.249L40.4375 52.9365L40.7188 52.749L41.0938 52.6553Z" fill="#FEFEFE"/>
<path d="M24.75 52.5615H25.5312L25.6562 52.8115L26.1562 54.1552L26.5312 55.1239L26.5625 55.3114L26.625 55.2801L26.8125 54.7802L27.3125 53.4365L27.625 52.624L27.7188 52.5615H28.4375L28.4688 52.5928V56.2488H27.9062L27.875 56.2176V53.7177L27.9062 53.624H27.8438L27.7812 53.9052L27.25 55.2801L26.9062 56.1551L26.8438 56.2488H26.375L26.2812 56.0926L26.0312 55.4676L25.5312 54.1552L25.3438 53.7177V56.2488H24.75V52.5615Z" fill="#FEFEFE"/>
<path d="M63.75 3.84473H63.8438V46.3424L63.7188 46.3111L63.6562 45.9362V4.4072L63.6875 4.37595L63.7188 3.90722L63.75 3.84473Z" fill="#676C71"/>
<path d="M37.9375 35.6562H38.5938L39 35.7812L39.3125 35.9687L39.5312 36.2187L39.6875 36.5312L39.7188 36.6249V39.1561H39.3438L39.0938 39.1248V38.8748L38.9062 38.9686L38.5938 39.1561L38.2812 39.2498H37.875L37.5 39.1561L37.1875 38.9686L36.9375 38.6873L36.8125 38.4061L36.7812 38.2811V37.9374L36.8438 37.6561L37 37.4062L37.2188 37.1874L37.5938 36.9999L37.875 36.9374H38.5938L39.0938 37.0624L39 36.6874L38.7812 36.4375L38.4688 36.3125H38.0312L37.7188 36.4375L37.5 36.6249L37.4375 36.7187L37.3125 36.6874L36.9688 36.4375L36.9062 36.375L36.9375 36.25L37.1562 36L37.5938 35.75L37.9375 35.6562Z" fill="#676C71"/>
<path d="M49.7188 35.6562H50.3438L50.75 35.7812L51.0938 36L51.375 36.3125L51.5938 36.7812L51.6562 37.1249V37.5624L51.625 37.6249L49.0938 37.6561L49.1562 37.9374L49.3125 38.2186L49.4375 38.3749L49.7188 38.5311L49.8438 38.5623H50.375L50.6875 38.4061L50.9375 38.1249L51 38.0311L51.1562 38.0624L51.5312 38.2186L51.5938 38.3436L51.375 38.6873L51.0625 38.9686L50.6875 39.1561L50.3125 39.2498H49.8438L49.4688 39.1561L49.0625 38.9373L48.8438 38.7498L48.6562 38.4998L48.4688 38.1249L48.375 37.6874V37.2499L48.4688 36.7812L48.7188 36.2812L49.0625 35.9375L49.5625 35.6875L49.7188 35.6562Z" fill="#676C71"/>
<path d="M29.5625 35.6562H30.1875L30.5938 35.7812L30.9062 35.9687L31.1562 36.2187L31.4062 36.7187L31.5 37.1562V37.4999L31.4375 37.6249H28.9062L29.0312 37.9999L29.1875 38.2499L29.4375 38.4686L29.6562 38.5623H30.2188L30.5312 38.4061L30.75 38.1874L30.8438 38.0311L31 38.0624L31.4375 38.2811L31.375 38.4373L31.25 38.6248L31.0625 38.8436L30.75 39.0623L30.4375 39.1873L30.1562 39.2498H29.6875L29.25 39.1248L29 38.9998L28.6875 38.7498L28.4688 38.4373L28.3125 38.0936L28.2188 37.6874V37.2187L28.3438 36.7187L28.5312 36.3437L28.7812 36.0312L29.125 35.8125L29.4375 35.6875L29.5625 35.6562Z" fill="#676C71"/>
<path d="M18.9375 52.5615H20.2188L20.5625 52.5928L20.875 52.7178L21.1875 52.999L21.3438 53.249L21.4062 53.4365V53.9677L21.2812 54.2489L21.0625 54.5302L20.75 54.7177L20.5938 54.7489L21.0625 55.4364L21.5 56.0613L21.5625 56.1551V56.2488H20.875L20.5938 55.8738L20.0938 55.0926L19.9375 54.8739L19.5312 54.8426V56.2488H18.9375L18.9062 56.2176V52.5928L18.9375 52.5615Z" fill="#FEFEFE"/>
<path d="M33.2812 52.5615H34.5625L34.9688 52.624L35.3438 52.8115L35.5625 53.0302L35.7188 53.3427L35.75 53.4677V53.9052L35.625 54.2489L35.4062 54.5302L35.0938 54.7177L34.9375 54.7489L35.25 55.2176L35.75 55.9363L35.9375 56.2176V56.2488H35.2188L35 55.9676L34.375 55.0301L34.2812 54.8739L33.8438 54.8426V56.2488H33.2812L33.25 56.2176V52.5928L33.2812 52.5615Z" fill="#FEFEFE"/>
<path d="M16.0312 52.5615H17.2188L17.5938 52.5928L17.9688 52.749L18.2812 53.0302L18.4688 53.4052V53.9989L18.3438 54.3114L18.0938 54.5927L17.75 54.7802L17.5312 54.8426H16.5938V56.2488L16.4688 56.2801H16.0312L16 56.2488V52.5928L16.0312 52.5615Z" fill="#FEFEFE"/>
<path d="M46.3438 35.6562H46.9688L47.3125 35.7812L47.5625 35.9687L47.75 36.2187L47.875 36.5312L47.9062 36.6562L47.9375 37.4062V37.9374L47.9062 39.1248H47.25L47.2188 36.9999L47.1562 36.6874L47.0312 36.5L46.875 36.375L46.6875 36.3125H46.3125L46.0625 36.4375L45.8125 36.7187L45.6875 37.0624L45.6562 39.1248H44.9688V35.75H45.6562L45.625 36.0312L45.8438 35.9062L46.1562 35.7187L46.3438 35.6562Z" fill="#676C71"/>
<path d="M30.4688 52.5615H32.625L32.6875 52.5928V53.1552H31.0312L31.0625 54.1239L32.5312 54.1552V54.6864L32.5 54.7177H31.0312V55.6864H32.3125L32.6875 55.7176V56.2488L31.5312 56.2801H30.5L30.4375 56.2176V52.5928L30.4688 52.5615Z" fill="#FEFEFE"/>
<path d="M21.9688 52.5615H24.1562L24.1875 52.5928V53.124L24.1562 53.1552H22.5312V54.1552H24.0312V54.6864L24 54.7177H22.5312V55.6864H23.5625L24.1562 55.7176L24.1875 55.7488V56.2488L21.9688 56.2801L21.9375 56.2488V52.5928L21.9688 52.5615Z" fill="#FEFEFE"/>
<path d="M46.7812 52.7178H47.2812L47.9062 52.749V53.2802L47.3125 53.3115H46.5L46.375 54.1239L46.6875 53.999L46.8438 53.9677H47.1875L47.5 54.0614L47.8125 54.2802L48 54.5302L48.125 54.8427V55.4364L48 55.7489L47.875 55.9363L47.5938 56.1863L47.3125 56.3113L47.1875 56.3426H46.6562L46.3438 56.2488L46 56.0301L45.7812 55.7176L45.6875 55.4676L45.7188 55.3426L46.0938 55.1864H46.2188L46.375 55.4989L46.5312 55.6551L46.7188 55.7489L46.9688 55.7801L47.2188 55.6864L47.4375 55.4989L47.5 55.3426V54.9677L47.375 54.7177L47.125 54.5614L46.875 54.5302L46.625 54.5927L46.375 54.7802L46.2188 54.7489L45.7812 54.5302L45.8125 54.0927L45.9688 52.874L46 52.749L46.7812 52.7178Z" fill="#FEFEFE"/>
<path d="M43.0312 34.8438H43.7188L43.75 35.7187L44.5 35.75V36.3749H43.7188L43.75 38.3436L43.8438 38.4998L44.0312 38.5935L44.3125 38.531L44.5 38.4373V39.1248L44.3438 39.2185L44.2188 39.2498H43.8125L43.4688 39.1248L43.1875 38.8748L43.0625 38.6248L43.0312 38.4373L43 36.4062L42.4688 36.3749V35.75L43 35.7187L43.0312 34.8438Z" fill="#676C71"/>
<path d="M43.9375 52.6553H44.3438L44.625 52.7178L44.9375 52.9053L45.1875 53.1865L45.2812 53.4365L45.3125 53.7802L45.2188 54.1552L45 54.5302L44.7188 54.8427L43.875 55.6864L45.3125 55.7176L45.3438 55.7489V56.2488H43.0312V55.6864L44.3438 54.3739L44.5625 54.0927L44.6562 53.874V53.5927L44.5 53.3427L44.3125 53.249H43.9688L43.7188 53.4052L43.5312 53.7177L43.0312 53.4677L43.0625 53.3115L43.25 53.0303L43.5 52.8115L43.8125 52.6865L43.9375 52.6553Z" fill="#FEFEFE"/>
<path d="M38.0625 52.6553H38.5L38.8438 52.749L39.1875 52.999L39.375 53.3115L39.4375 53.624L39.4062 53.9677L39.3125 54.2489L39 54.6864L38 55.6864L39.4375 55.7176L39.4688 55.7489V56.2488H37.1562V55.7176L37.375 55.4676L37.5625 55.3114L37.7812 55.0614L38.5 54.3427L38.75 53.9989L38.7812 53.9052V53.5927L38.6875 53.4052L38.4375 53.249H38.125L37.875 53.374L37.6875 53.6865L37.5625 53.6552L37.1875 53.499L37.1562 53.374L37.3438 53.0615L37.5938 52.8428L37.8438 52.7178L38.0625 52.6553Z" fill="#FEFEFE"/>
<path d="M20.8125 36.2812H21.2188L21.5312 36.4062L21.7812 36.5937L22 36.9062L22.0938 37.2499V37.5624L22.0312 37.8749L21.8438 38.2499L21.5938 38.4686L21.2812 38.5936H20.75L20.375 38.4061L20.125 38.1249L20 37.8437L19.9688 37.7187V37.1562L20.125 36.7812L20.4062 36.4687L20.7188 36.3125L20.8125 36.2812Z" fill="#FEFEFE"/>
<path d="M17.0312 36.2812H17.4062L17.75 36.4062L17.9688 36.5625L18.1875 36.875L18.2812 37.1562L18.3125 37.5312L18.2188 37.9374L18.0625 38.2186L17.8438 38.4374L17.5 38.5936H16.9688L16.6562 38.4686L16.4688 38.3124L16.25 37.9687L16.1562 37.5937V37.3124L16.25 36.9375L16.4375 36.6562L16.7188 36.4062L17.0312 36.2812Z" fill="#FEFEFE"/>
<path d="M24.5625 36.2812H24.9375L25.25 36.4062L25.5 36.625L25.6875 36.9687L25.75 37.2499V37.5937L25.6562 37.9999L25.4688 38.2811L25.2188 38.4999L25.0312 38.5936L24.7188 38.6249L24.4062 38.5624L24.1875 38.4374L24.0312 38.3124L23.8438 37.9999L23.75 37.6562V37.2187L23.875 36.8437L24.0625 36.5625L24.3125 36.375L24.5625 36.2812Z" fill="#FEFEFE"/>
<path d="M41.125 53.2178H41.4062L41.6875 53.3428L41.8438 53.499L42 53.749L42.0938 54.0302L42.125 54.1865V54.8427L42.0312 55.1864L41.9062 55.4364L41.7188 55.6551L41.4688 55.7801L41.25 55.8114L40.9375 55.7176L40.7188 55.5301L40.5 55.0927L40.4375 54.8427V54.1865L40.5312 53.8115L40.6875 53.5303L40.8438 53.374L41.0312 53.249L41.125 53.2178Z" fill="#676C71"/>
<path d="M27.0625 34.4375H27.75V38.9685L27.7188 39.156H27.0938L27.0625 39.1247V34.4375Z" fill="#676C71"/>
<path d="M53.4062 35.6562H53.9688L54.125 35.7187V36.4687L53.8125 36.375H53.4375L53.1875 36.5L53 36.7187L52.875 36.9687L52.8438 37.0937L52.8125 39.1248H52.1562V35.75H52.7812V36H52.8438L53.1562 35.7812L53.4062 35.6562Z" fill="#676C71"/>
<path d="M41.5938 35.7188H42.125L42.1562 35.75V36.4062L42.0938 36.4375H41.6562L41.3438 36.5312L41.125 36.7499L41 37.0312L40.9688 37.1874L40.9375 39.1873H40.2812L40.25 36.9687V36.2812L40.2812 35.8125L40.875 35.7812L40.9062 35.8125L40.9375 36.0937L41.2812 35.8437L41.5938 35.7188Z" fill="#676C71"/>
<path d="M34.0312 35.0938H35.0938L35.3438 35.1875L35.5938 35.4062L35.7188 35.6562V36.0312L35.5938 36.3124L35.3438 36.5312L35.0625 36.6249H34.0312L34 36.5937V35.125L34.0312 35.0938Z" fill="#FEFEFE"/>
<path d="M29.1875 52.5615H29.7188L29.75 52.5928V56.2488H29.1875L29.1562 56.2176V52.5928L29.1875 52.5615Z" fill="#FEFEFE"/>
<path d="M38.0938 37.5H38.4688L38.8125 37.5625L39.0625 37.6875L39.0938 37.8125L39 38.0937L38.7812 38.375L38.5 38.5624L38.2812 38.6249H37.9375L37.625 38.4687L37.5 38.2812L37.4688 38L37.5938 37.75L37.8438 37.5625L38.0938 37.5Z" fill="#FEFEFE"/>
<path d="M33.8438 53.124H34.5938L34.875 53.2178L35.0625 53.4365L35.125 53.5927V53.874L35.0312 54.0615L34.875 54.1865L34.6562 54.2802H33.8438V53.124Z" fill="#676C71"/>
<path d="M19.5312 53.124H20.25L20.5312 53.2178L20.75 53.4678L20.7812 53.5615V53.9052L20.6562 54.0927L20.4375 54.249L20.3125 54.2802H19.5312V53.124Z" fill="#676C71"/>
<path d="M16.5938 53.1553H17.4375L17.6562 53.249L17.8125 53.4365L17.875 53.749L17.7812 53.999L17.625 54.1865L17.4062 54.2802H16.625L16.5938 54.249V53.1553Z" fill="#676C71"/>
<path d="M29.6875 36.2812H30.0938L30.375 36.4062L30.625 36.625L30.75 36.875V37L30.6875 37.0312H29L28.9688 36.9375L29.125 36.6562L29.25 36.5L29.5625 36.3125L29.6875 36.2812Z" fill="#FEFEFE"/>
<path d="M49.8438 36.2812H50.2188L50.5 36.375L50.7812 36.625L50.9375 36.9375V37L50.875 37.0312H49.125L49.1562 36.875L49.3438 36.5937L49.5938 36.375L49.8438 36.2812Z" fill="#FEFEFE"/>
</g>
<defs>
<clipPath id="clip0_10864_184">
<rect width="64" height="61" rx="1.5" fill="white"/>
</clipPath>
</defs>
</svg>
