<svg width="191" height="53" viewBox="0 0 191 53" fill="none" xmlns="http://www.w3.org/2000/svg">
<path d="M0 8.11816H12.15V12.5619H8.4375V31.9682H3.7125V12.5619H0V8.11816Z" fill="white"/>
<path d="M14.2891 8.11816H23.7953V12.5619H19.0141V17.7369H23.2328V22.1807H19.0141V27.5244H23.8516V31.9682H14.2891V8.11816Z" fill="white"/>
<path d="M38.5875 8.28691V12.6182C37.9687 12.4494 37.35 12.3369 36.8438 12.3369C34.875 12.3369 33.4125 13.1244 32.3438 14.6994C31.3875 16.0494 30.9375 17.7932 30.9375 19.8182C30.9375 21.8432 31.3875 23.5869 32.3438 25.1057C33.4688 26.8494 34.9312 27.7494 36.8438 27.7494C37.2937 27.7494 37.9125 27.6369 38.6437 27.4119V31.8557C37.9687 32.1369 37.2375 32.2494 36.45 32.2494C33.1875 32.2494 30.6 30.9557 28.575 28.3682C26.775 26.0057 25.875 23.1932 25.875 19.8182C25.875 16.6682 26.775 13.9119 28.6313 11.6057C30.6563 9.07441 33.1875 7.83691 36.225 7.83691C37.0125 7.83691 37.8 7.94941 38.5875 8.28691Z" fill="white"/>
<path d="M41.0078 8.11816H45.7328V17.4557H50.5141V8.11816H55.2391V31.9682H50.5141V21.8994H45.7328V31.9682H41.0078V8.11816Z" fill="white"/>
<path d="M59.7375 8.11816H65.925L68.2313 22.1807H68.2875L70.2 8.11816H76.5L79.0312 31.9682H74.1937L73.0687 14.8119H72.9562L72.225 20.6619L70.2 31.9682H66.5438L64.2375 20.5494L63.45 15.2057V14.8119H63.3937L62.7188 31.9682H57.6562L59.7375 8.11816Z" fill="white"/>
<path d="M85.5555 8.11816H90.5055L96.243 31.9682H91.2367L90.3367 27.9744H85.5555L84.7117 31.9682H80.043L85.5555 8.11816ZM89.6055 24.2057L88.4242 17.8494L87.8617 14.2494H87.8055L87.2992 17.8494L86.2867 24.2057H89.6055Z" fill="white"/>
<path d="M105.752 18.6934H113.458V20.5496C113.458 23.7559 113.008 26.3996 112.052 28.3121C110.758 31.0121 108.677 32.3059 105.808 32.3059C102.883 32.3059 100.689 30.9559 99.1141 28.1996C97.8766 26.0059 97.2578 23.3059 97.2578 20.1559C97.2578 16.7809 97.8203 14.0246 99.0016 11.8871C100.464 9.13086 102.714 7.72461 105.752 7.72461C107.495 7.72461 109.014 8.23086 110.252 9.29961C111.433 10.3121 112.277 11.6621 112.783 13.4059L108.17 15.2059C107.833 13.1809 106.989 12.1684 105.752 12.1121C104.345 12.0559 103.389 13.0684 102.827 15.2059C102.433 16.5559 102.264 18.1871 102.264 20.0996C102.264 25.3871 103.502 28.0309 105.92 28.0309C106.989 28.0309 107.72 27.4121 108.227 26.1746C108.564 25.3309 108.677 24.3184 108.677 23.1371H105.752V18.6934Z" fill="white"/>
<path d="M115.93 8.11816H120.43L126.336 22.5182L126.392 22.4619C126.111 21.4494 125.998 20.2682 125.998 18.8619V8.11816H130.723V31.9682H126.28L120.43 17.5682L120.373 17.6244L120.655 20.0432V20.9994V31.9682H115.93V8.11816Z" fill="white"/>
<path d="M138.208 8.11816H143.158L148.895 31.9682H143.889L142.989 27.9744H138.208L137.364 31.9682H132.695L138.208 8.11816ZM142.314 24.2057L141.077 17.8494L140.514 14.2494H140.458L139.952 17.8494L138.939 24.2057H142.314Z" fill="white"/>
<path d="M149.625 8.11816H161.775V12.5619H158.006V31.9682H153.281V12.5619H149.625V8.11816Z" fill="white"/>
<path d="M163.914 8.11816H173.42V12.5619H168.639V17.7369H172.802V22.1807H168.639V27.5244H173.477V31.9682H163.914V8.11816Z" fill="white"/>
<path d="M1.6875 49.9684V40.9121H4.78125C5.45625 40.9121 6.01875 40.9684 6.4125 41.0246C6.91875 41.1371 7.36875 41.3621 7.70625 41.6996C8.2125 42.0934 8.55 42.5996 8.775 43.2184C9 43.8371 9.1125 44.5684 9.1125 45.3559C9.1125 46.0309 9.05625 46.6496 8.8875 47.2121C8.71875 47.7184 8.55 48.1684 8.26875 48.5059C7.9875 48.8434 7.7625 49.1246 7.425 49.3496C7.14375 49.5746 6.75 49.6871 6.35625 49.7996C5.9625 49.9121 5.45625 49.9684 4.89375 49.9684H1.6875ZM2.86875 48.9559H4.78125C5.4 48.9559 5.85 48.8996 6.1875 48.7871C6.525 48.6746 6.80625 48.5059 6.975 48.3371C7.25625 48.0559 7.48125 47.6621 7.65 47.2121C7.81875 46.7059 7.875 46.1434 7.875 45.4684C7.875 44.5121 7.70625 43.7809 7.425 43.2746C7.14375 42.7684 6.75 42.4309 6.3 42.2621C5.9625 42.1496 5.45625 42.0934 4.78125 42.0934H2.86875V48.9559Z" fill="white"/>
<path d="M15.0195 42.2059V40.9121H16.1445V42.2059H15.0195ZM15.0195 49.9684V43.4434H16.1445V50.0246L15.0195 49.9684Z" fill="white"/>
<path d="M21.9945 50.5307L23.0633 50.6994C23.1195 51.0369 23.232 51.2619 23.457 51.4307C23.7383 51.6557 24.132 51.7119 24.582 51.7119C25.0883 51.7119 25.482 51.5994 25.7633 51.4307C26.0445 51.2057 26.2133 50.9244 26.3258 50.5869C26.382 50.3619 26.382 49.9119 26.382 49.1807C25.8758 49.7432 25.3133 50.0244 24.582 50.0244C23.682 50.0244 23.007 49.6869 22.5008 49.0682C21.9945 48.3932 21.7695 47.6619 21.7695 46.7057C21.7695 46.0869 21.882 45.5244 22.107 44.9619C22.332 44.4557 22.6695 44.0057 23.0633 43.7244C23.5133 43.4432 24.0195 43.2744 24.582 43.2744C25.3695 43.2744 25.9883 43.6119 26.4945 44.2307V43.4432H27.507V49.1244C27.507 50.1369 27.3945 50.8682 27.2258 51.3182C27.0008 51.7682 26.6633 52.1057 26.2133 52.3307C25.7633 52.5557 25.2008 52.7244 24.582 52.7244C23.7945 52.7244 23.1758 52.5557 22.6695 52.2182C22.2195 51.7682 21.9383 51.2619 21.9945 50.5307ZM22.8945 46.5932C22.8945 47.4369 23.0633 48.0557 23.4008 48.4494C23.7383 48.8432 24.1883 49.0682 24.6945 49.0682C25.2008 49.0682 25.6508 48.8994 25.9883 48.5057C26.3258 48.1119 26.4945 47.4932 26.4945 46.6494C26.4945 45.8619 26.3258 45.2432 25.9883 44.8494C25.6508 44.4557 25.2008 44.2307 24.6945 44.2307C24.1883 44.2307 23.7945 44.4557 23.457 44.8494C23.0633 45.1869 22.8945 45.8057 22.8945 46.5932Z" fill="white"/>
<path d="M33.582 42.2059V40.9121H34.707V42.2059H33.582ZM33.582 49.9684V43.4434H34.707V50.0246L33.582 49.9684Z" fill="white"/>
<path d="M43.143 49.0117L43.3117 49.968C42.9742 50.0242 42.7492 50.0805 42.468 50.0805C42.0742 50.0805 41.7367 50.0242 41.5117 49.9117C41.2867 49.7992 41.118 49.6305 41.0617 49.4055C40.9492 49.1805 40.9492 48.7305 40.9492 48.1117V44.2867H40.1055V43.443H40.9492V41.8117L42.0742 41.1367V43.443H43.1992V44.2867H42.0742V48.1117C42.0742 48.4492 42.0742 48.618 42.1305 48.7305C42.1867 48.843 42.243 48.8992 42.2992 48.9555C42.4117 49.0117 42.5242 49.0117 42.693 49.0117C42.7492 49.068 42.918 49.0117 43.143 49.0117Z" fill="white"/>
<path d="M52.8742 49.1812C52.4805 49.5187 52.0867 49.8 51.693 49.9125C51.2992 50.0813 50.9055 50.1375 50.4555 50.1375C49.7242 50.1375 49.1617 49.9688 48.8242 49.6313C48.4305 49.2938 48.2617 48.8438 48.2617 48.2812C48.2617 47.9437 48.318 47.6625 48.4867 47.3813C48.6555 47.1 48.8242 46.9313 49.0492 46.7625C49.2742 46.5938 49.5555 46.4812 49.8367 46.3687C50.0617 46.3125 50.3992 46.2563 50.8492 46.2C51.7492 46.0875 52.4242 45.975 52.818 45.8062C52.818 45.6375 52.818 45.5812 52.818 45.525C52.818 45.075 52.7055 44.7375 52.4805 44.5688C52.1992 44.3438 51.7492 44.175 51.243 44.175C50.7367 44.175 50.343 44.2875 50.0617 44.4563C49.8367 44.625 49.6117 44.9625 49.4992 45.4125L48.4305 45.2437C48.543 44.7937 48.7117 44.4 48.9367 44.1187C49.1617 43.8375 49.4992 43.6125 49.893 43.4438C50.343 43.275 50.793 43.2188 51.3555 43.2188C51.918 43.2188 52.368 43.275 52.7055 43.4438C53.043 43.5563 53.3242 43.725 53.493 43.95C53.6617 44.175 53.7742 44.4 53.8305 44.7375C53.8867 44.9063 53.8867 45.2438 53.8867 45.75V47.2125C53.8867 48.225 53.8867 48.9 53.943 49.1812C53.9992 49.4625 54.0555 49.7438 54.2242 49.9688H53.043C52.9867 49.7438 52.9305 49.4625 52.8742 49.1812ZM52.7617 46.7063C52.368 46.875 51.7492 46.9875 50.9617 47.1C50.5117 47.1563 50.1742 47.2125 50.0055 47.325C49.8367 47.4375 49.668 47.55 49.5555 47.6625C49.443 47.8313 49.3867 48 49.3867 48.1688C49.3867 48.45 49.4992 48.7312 49.7242 48.9C49.9492 49.125 50.2867 49.1812 50.6805 49.1812C51.1305 49.1812 51.468 49.0687 51.8055 48.9C52.143 48.7312 52.368 48.45 52.5367 48.1125C52.6492 47.8875 52.7055 47.4938 52.7055 46.9875L52.7617 46.7063Z" fill="white"/>
<path d="M59.9648 49.9684V40.9121H61.0898V49.9684H59.9648Z" fill="white"/>
<path d="M75.207 49.9684V40.9121H81.6758V41.9809H76.3883V44.7934H81.3383V45.8621H76.3883V48.9559H81.9008V49.9684H75.207Z" fill="white"/>
<path d="M87.0195 49.9684L89.382 46.5934L87.1883 43.4434H88.5383L89.5508 45.0184C89.7195 45.2996 89.8883 45.5246 90.0008 45.7496C90.1695 45.4684 90.3383 45.2434 90.507 45.0184L91.5758 43.4434H92.9258L90.6758 46.5934L93.0383 49.9684H91.6883L90.3383 47.9434L90.057 47.4371L88.3133 49.9684H87.0195Z" fill="white"/>
<path d="M102.713 47.6057L103.781 47.7744C103.669 48.5057 103.387 49.1244 102.881 49.5182C102.375 49.9682 101.812 50.1369 101.081 50.1369C100.181 50.1369 99.45 49.8557 98.9437 49.2369C98.3812 48.6744 98.1562 47.8307 98.1562 46.7057C98.1562 45.9744 98.2688 45.3557 98.4938 44.8494C98.7188 44.3432 99.0563 43.9494 99.5625 43.6682C100.013 43.3869 100.575 43.2744 101.138 43.2744C101.869 43.2744 102.431 43.4432 102.881 43.8369C103.331 44.1744 103.612 44.7369 103.725 45.3557L102.656 45.5244C102.544 45.0744 102.375 44.7369 102.094 44.5119C101.812 44.2869 101.531 44.1744 101.138 44.1744C100.575 44.1744 100.125 44.3994 99.7875 44.7932C99.45 45.1869 99.2812 45.8057 99.2812 46.7057C99.2812 47.6057 99.45 48.2244 99.7875 48.6182C100.125 49.0119 100.575 49.2369 101.081 49.2369C101.531 49.2369 101.869 49.1244 102.15 48.8432C102.488 48.5619 102.656 48.1682 102.713 47.6057Z" fill="white"/>
<path d="M113.568 47.8863L114.693 48.0551C114.524 48.7301 114.187 49.2363 113.68 49.6301C113.174 50.0238 112.555 50.1926 111.824 50.1926C110.868 50.1926 110.137 49.9113 109.574 49.2926C109.012 48.7301 108.73 47.8863 108.73 46.8176C108.73 45.6926 109.012 44.8488 109.574 44.2301C110.137 43.6113 110.868 43.3301 111.768 43.3301C112.612 43.3301 113.343 43.6113 113.905 44.2301C114.468 44.8488 114.749 45.6926 114.749 46.7613C114.749 46.8176 114.749 46.9301 114.749 47.0426H109.855C109.912 47.7738 110.08 48.3363 110.474 48.6738C110.812 49.0676 111.318 49.2363 111.824 49.2363C112.218 49.2363 112.555 49.1238 112.837 48.8988C113.174 48.6738 113.399 48.3363 113.568 47.8863ZM109.968 46.0863H113.624C113.568 45.5238 113.455 45.1301 113.23 44.8488C112.893 44.3988 112.443 44.2301 111.88 44.2301C111.374 44.2301 110.924 44.3988 110.587 44.7363C110.193 45.0738 110.024 45.5238 109.968 46.0863Z" fill="white"/>
<path d="M120.488 49.9684V40.9121H121.613V49.9684H120.488Z" fill="white"/>
<path d="M127.688 49.9684V40.9121H128.756V49.9684H127.688Z" fill="white"/>
<path d="M139.334 47.8863L140.459 48.0551C140.29 48.7301 139.952 49.2363 139.446 49.6301C138.94 50.0238 138.321 50.1926 137.59 50.1926C136.634 50.1926 135.902 49.9113 135.34 49.2926C134.777 48.7301 134.496 47.8863 134.496 46.8176C134.496 45.6926 134.777 44.8488 135.34 44.2301C135.902 43.6113 136.634 43.3301 137.534 43.3301C138.377 43.3301 139.109 43.6113 139.671 44.2301C140.234 44.8488 140.515 45.6926 140.515 46.7613C140.515 46.8176 140.515 46.9301 140.515 47.0426H135.677C135.734 47.7738 135.902 48.3363 136.296 48.6738C136.634 49.0676 137.14 49.2363 137.646 49.2363C138.04 49.2363 138.377 49.1238 138.659 48.8988C138.94 48.6738 139.165 48.3363 139.334 47.8863ZM135.677 46.0863H139.334C139.277 45.5238 139.165 45.1301 138.94 44.8488C138.602 44.3988 138.152 44.2301 137.59 44.2301C137.084 44.2301 136.634 44.3988 136.296 44.7363C135.902 45.0738 135.734 45.5238 135.677 46.0863Z" fill="white"/>
<path d="M146.25 49.9676V43.4426H147.262V44.3988C147.769 43.6676 148.444 43.3301 149.344 43.3301C149.737 43.3301 150.075 43.3863 150.412 43.5551C150.75 43.7238 150.975 43.8926 151.144 44.1176C151.313 44.3426 151.425 44.6238 151.481 44.9613C151.537 45.1863 151.537 45.5238 151.537 46.0301V50.0801H150.412V46.0863C150.412 45.6363 150.356 45.2988 150.3 45.0738C150.188 44.8488 150.075 44.6801 149.85 44.5113C149.625 44.3988 149.4 44.2863 149.062 44.2863C148.612 44.2863 148.162 44.4551 147.825 44.7363C147.487 45.0176 147.319 45.5801 147.319 46.4238V50.0238L146.25 49.9676Z" fill="white"/>
<path d="M161.888 47.6057L162.957 47.7744C162.845 48.5057 162.563 49.1244 162.057 49.5182C161.551 49.9682 160.988 50.1369 160.257 50.1369C159.357 50.1369 158.626 49.8557 158.12 49.2369C157.557 48.6744 157.332 47.8307 157.332 46.7057C157.332 45.9744 157.445 45.3557 157.67 44.8494C157.895 44.3432 158.232 43.9494 158.738 43.6682C159.188 43.3869 159.751 43.2744 160.313 43.2744C161.045 43.2744 161.607 43.4432 162.057 43.8369C162.507 44.1744 162.788 44.7369 162.901 45.3557L161.832 45.5244C161.72 45.0744 161.551 44.7369 161.27 44.5119C160.988 44.2869 160.707 44.1744 160.313 44.1744C159.751 44.1744 159.301 44.3994 158.963 44.7932C158.626 45.1869 158.457 45.8057 158.457 46.7057C158.457 47.6057 158.626 48.2244 158.963 48.6182C159.301 49.0119 159.751 49.2369 160.257 49.2369C160.707 49.2369 161.045 49.1244 161.326 48.8432C161.607 48.5619 161.832 48.1682 161.888 47.6057Z" fill="white"/>
<path d="M172.744 47.8863L173.869 48.0551C173.7 48.7301 173.362 49.2363 172.856 49.6301C172.35 50.0238 171.731 50.1926 171 50.1926C170.044 50.1926 169.312 49.9113 168.75 49.2926C168.188 48.7301 167.906 47.8863 167.906 46.8176C167.906 45.6926 168.188 44.8488 168.75 44.2301C169.312 43.6113 170.044 43.3301 170.944 43.3301C171.844 43.3301 172.519 43.6113 173.081 44.2301C173.644 44.8488 173.925 45.6926 173.925 46.7613C173.925 46.8176 173.925 46.9301 173.925 47.0426H169.031C169.087 47.7738 169.256 48.3363 169.65 48.6738C169.988 49.0676 170.494 49.2363 171 49.2363C171.394 49.2363 171.731 49.1238 172.012 48.8988C172.35 48.6738 172.575 48.3363 172.744 47.8863ZM169.088 46.0863H172.744C172.688 45.5238 172.575 45.1301 172.35 44.8488C172.012 44.3988 171.562 44.2301 171 44.2301C170.494 44.2301 170.044 44.3988 169.706 44.7363C169.369 45.0738 169.144 45.5238 169.088 46.0863Z" fill="white"/>
<path fill-rule="evenodd" clip-rule="evenodd" d="M0.957031 36.918H173.588V37.1992H0.957031V36.918Z" stroke="white" stroke-width="0.5625" stroke-miterlimit="10"/>
<path d="M180.446 14.4435V8.35544H183.532C183.779 8.35544 184.049 8.42693 184.34 8.56992C184.632 8.70741 184.879 8.9219 185.083 9.21338C185.292 9.49936 185.396 9.86233 185.396 10.3023C185.396 10.7478 185.289 11.1272 185.074 11.4407C184.86 11.7487 184.599 11.9824 184.291 12.1419C183.988 12.3014 183.702 12.3812 183.433 12.3812H181.205V11.3912H183.02C183.202 11.3912 183.397 11.3005 183.606 11.119C183.82 10.9375 183.928 10.6653 183.928 10.3023C183.928 9.92833 183.82 9.67535 183.606 9.54335C183.397 9.41136 183.213 9.34537 183.053 9.34537H181.783V14.4435H180.446ZM184.126 11.5727L185.644 14.4435H184.175L182.69 11.5727H184.126ZM182.756 18.0733C181.843 18.0733 180.988 17.9028 180.191 17.5618C179.393 17.2208 178.692 16.7479 178.087 16.1429C177.482 15.5379 177.009 14.8367 176.668 14.0393C176.327 13.2419 176.157 12.3867 176.157 11.4737C176.157 10.5608 176.327 9.70559 176.668 8.90815C177.009 8.1107 177.482 7.4095 178.087 6.80454C178.692 6.19958 179.393 5.72662 180.191 5.38564C180.988 5.04466 181.843 4.87417 182.756 4.87417C183.669 4.87417 184.524 5.04466 185.322 5.38564C186.119 5.72662 186.82 6.19958 187.425 6.80454C188.03 7.4095 188.503 8.1107 188.844 8.90815C189.185 9.70559 189.356 10.5608 189.356 11.4737C189.356 12.3867 189.185 13.2419 188.844 14.0393C188.503 14.8367 188.03 15.5379 187.425 16.1429C186.82 16.7479 186.119 17.2208 185.322 17.5618C184.524 17.9028 183.669 18.0733 182.756 18.0733ZM182.756 16.4894C183.68 16.4894 184.522 16.2639 185.281 15.8129C186.039 15.362 186.644 14.757 187.095 13.998C187.546 13.2391 187.772 12.3977 187.772 11.4737C187.772 10.5498 187.546 9.70834 187.095 8.94939C186.644 8.19045 186.039 7.58549 185.281 7.13452C184.522 6.68355 183.68 6.45807 182.756 6.45807C181.832 6.45807 180.991 6.68355 180.232 7.13452C179.473 7.58549 178.868 8.19045 178.417 8.94939C177.966 9.70834 177.741 10.5498 177.741 11.4737C177.741 12.3977 177.966 13.2391 178.417 13.998C178.868 14.757 179.473 15.362 180.232 15.8129C180.991 16.2639 181.832 16.4894 182.756 16.4894Z" fill="white"/>
</svg>
