<svg width="23" height="23" viewBox="0 0 23 23" fill="none" xmlns="http://www.w3.org/2000/svg">
<path d="M7.3335 15.3332L16.0536 14.6065C18.7821 14.3792 19.3946 13.7832 19.697 11.0621L20.3335 5.33325" stroke="#161616" stroke-width="1.5" stroke-linecap="round"/>
<path d="M5.3335 5.33325H21.3334" stroke="#161616" stroke-width="1.5" stroke-linecap="round"/>
<path d="M5.333 21.3332C6.43757 21.3332 7.33299 20.4378 7.33299 19.3332C7.33299 18.2287 6.43757 17.3333 5.333 17.3333C4.22844 17.3333 3.33301 18.2287 3.33301 19.3332C3.33301 20.4378 4.22844 21.3332 5.333 21.3332Z" stroke="#6BAB44" stroke-width="1.5"/>
<path d="M16.3335 21.3332C17.4381 21.3332 18.3335 20.4378 18.3335 19.3332C18.3335 18.2287 17.4381 17.3333 16.3335 17.3333C15.2289 17.3333 14.3335 18.2287 14.3335 19.3332C14.3335 20.4378 15.2289 21.3332 16.3335 21.3332Z" stroke="#6BAB44" stroke-width="1.5"/>
<path d="M7.3335 19.3333H14.3335" stroke="#161616" stroke-width="1.5" stroke-linecap="round"/>
<path d="M1.3335 1.33325H2.29949C3.24417 1.33325 4.06763 1.95784 4.29675 2.84818L7.272 14.4097C7.42234 14.994 7.29368 15.6129 6.92172 16.0948L5.96561 17.3332" stroke="#161616" stroke-width="1.5" stroke-linecap="round"/>
</svg>
