<svg width="26" height="26" viewBox="0 0 26 26" fill="none" xmlns="http://www.w3.org/2000/svg">
<path d="M22.6 10.6C22.6 6.07451 22.6 3.81178 21.1941 2.40588C19.7883 1 17.5254 1 13 1H10.6C6.07451 1 3.81178 1 2.40588 2.40588C1 3.81178 1 6.07451 1 10.6V13C1 17.5254 1 19.7883 2.40588 21.1941C3.6816 22.4698 5.66284 22.588 9.4 22.5989H10" stroke="#161616" stroke-width="1.5" stroke-linecap="round" stroke-linejoin="round"/>
<path d="M16.0342 23.8715C14.0574 24.0082 12.0988 14.7891 13.4437 13.444C14.7886 12.0989 24.0083 14.0561 23.8718 16.0329C23.7777 17.3275 21.5864 17.8396 21.6503 18.9901C21.6692 19.3271 22.0948 19.6343 22.9462 20.2485C23.5378 20.6753 24.1409 21.0898 24.7224 21.5303C24.9545 21.7061 25.0462 22.0018 24.978 22.2804C24.6507 23.6189 23.6248 24.6493 22.2809 24.978C22.0022 25.0462 21.7066 24.9545 21.5308 24.7223C21.0904 24.1408 20.676 23.5375 20.2492 22.9458C19.635 22.0943 19.328 21.6687 18.991 21.6498C17.8407 21.5859 17.3286 23.7774 16.0342 23.8715Z" stroke="#6BAB44" stroke-width="1.5"/>
<path d="M1 7H22.6" stroke="#161616" stroke-width="1.5" stroke-linejoin="round"/>
</svg>
